<?xml version="1.0" encoding="UTF-8"?><svg id="Capa_1" xmlns="http://www.w3.org/2000/svg" viewBox="0 0 60 60"><path d="M56.45,28.71h-10.55c-.27,0-.49-.22-.49-.49s.22-.49.49-.49h10.55c1.42,0,2.57-1.15,2.57-2.57v-.57c0-1.42-1.15-2.57-2.57-2.57H3.55c-1.42,0-2.57,1.15-2.57,2.57v.57c0,1.42,1.15,2.57,2.57,2.57h6.9c.27,0,.49.22.49.49s-.22.49-.49.49H3.55c-1.96,0-3.55-1.59-3.55-3.55v-.57c0-1.96,1.59-3.55,3.55-3.55h52.89c1.96,0,3.55,1.59,3.55,3.55v.57c0,1.96-1.59,3.55-3.55,3.55Z" fill="#000" stroke-width="0"/><path d="M33.03,28.71H15.09c-.27,0-.49-.22-.49-.49s.22-.49.49-.49h17.93c.27,0,.49.22.49.49s-.22.49-.49.49Z" fill="#000" stroke-width="0"/><circle cx="12.77" cy="28.22" r=".5" fill="#fbb900" stroke-width="0"/><path d="M39.41,33.07c-.1,0-.19,0-.29,0-.27-.02-.48-.25-.46-.52s.25-.49.52-.46c1.5.1,2.92-.69,3.64-1.99,1.05-1.88.37-4.25-1.51-5.3-1.88-1.04-4.25-.37-5.3,1.51-.6,1.08-.66,2.35-.15,3.49.11.25,0,.54-.25.65-.25.11-.54,0-.65-.25-.63-1.42-.56-3.01.19-4.37,1.31-2.35,4.29-3.2,6.64-1.89,2.35,1.31,3.2,4.29,1.89,6.64-.86,1.54-2.51,2.51-4.27,2.51Z" fill="#fbb900" stroke-width="0"/><path d="M11.12,17.97c-3.69,0-6.93-2.49-7.87-6.05-.07-.26.09-.53.35-.6.27-.07.53.09.6.35.83,3.13,3.68,5.32,6.92,5.32,3.95,0,7.16-3.21,7.16-7.16s-3.21-7.16-7.16-7.16c-3.24,0-6.08,2.18-6.92,5.31-.07.26-.34.42-.6.35-.26-.07-.42-.34-.35-.6.95-3.55,4.19-6.04,7.87-6.04,4.49,0,8.14,3.65,8.14,8.14s-3.65,8.14-8.14,8.14Z" fill="#000" stroke-width="0"/><path d="M30,17.97c-4.49,0-8.14-3.65-8.14-8.14S25.51,1.68,30,1.68s8.14,3.65,8.14,8.14-3.65,8.14-8.14,8.14ZM30,2.66c-3.95,0-7.16,3.21-7.16,7.16s3.21,7.16,7.16,7.16,7.16-3.21,7.16-7.16-3.21-7.16-7.16-7.16Z" fill="#000" stroke-width="0"/><path d="M48.81,17.97c-4.49,0-8.14-3.65-8.14-8.14s3.65-8.14,8.14-8.14c1.44,0,2.86.38,4.1,1.11.24.14.31.44.18.67-.14.23-.44.31-.67.18-1.09-.64-2.34-.97-3.61-.97-3.95,0-7.16,3.21-7.16,7.16s3.21,7.16,7.16,7.16,7.16-3.21,7.16-7.16c0-1.26-.33-2.49-.95-3.57-.14-.24-.06-.54.18-.67.23-.14.54-.06.67.18.71,1.23,1.09,2.64,1.09,4.06,0,4.49-3.65,8.14-8.14,8.14Z" fill="#000" stroke-width="0"/><circle cx="8.26" cy="8.44" r=".82" fill="#fbb900" stroke-width="0"/><circle cx="13.97" cy="8.44" r=".82" fill="#fbb900" stroke-width="0"/><path d="M11.12,14.96c-1.9,0-3.82-.66-3.82-1.93,0-2.54,7.64-2.54,7.64,0,0,1.27-1.92,1.93-3.82,1.93ZM11.12,12.08c-1.76,0-2.83.61-2.83.95s1.08.95,2.83.95,2.83-.61,2.83-.95-1.08-.95-2.83-.95Z" fill="#fbb900" stroke-width="0"/><path d="M6.05,7.92c-.06,0-.12-.01-.18-.03-.25-.1-.38-.38-.28-.64.07-.18.46-1.07,1.48-1.43,1.01-.35,1.86.09,2.03.18.24.14.32.44.18.67-.14.24-.44.32-.67.18-.06-.03-.6-.33-1.21-.11-.62.22-.86.79-.88.85-.08.2-.26.32-.46.32Z" fill="#fbb900" stroke-width="0"/><path d="M16.18,7.92c-.2,0-.38-.12-.46-.31-.04-.11-.28-.64-.88-.86-.6-.21-1.12.06-1.21.11-.23.13-.54.05-.67-.18-.13-.24-.05-.54.18-.67.23-.13,1.04-.53,2.03-.18.98.34,1.38,1.18,1.47,1.42.1.25-.02.54-.28.64-.06.02-.12.03-.18.03Z" fill="#fbb900" stroke-width="0"/><circle cx="27.15" cy="8.44" r=".82" fill="#fbb900" stroke-width="0"/><circle cx="32.85" cy="8.44" r=".82" fill="#fbb900" stroke-width="0"/><path d="M29.97,14.27c-1.99,0-3.23-1.23-3.56-1.61-.18-.2-.16-.51.04-.69.2-.18.51-.16.69.04.19.21,1.21,1.27,2.82,1.27h.03c1.65-.01,2.67-1.12,2.85-1.34.18-.21.49-.23.69-.06.21.17.23.49.06.69-.33.39-1.57,1.67-3.6,1.69h-.04Z" fill="#fbb900" stroke-width="0"/><path d="M48.77,14.27c-1.99,0-3.23-1.23-3.56-1.61-.18-.2-.16-.51.04-.69.2-.18.51-.16.69.04.19.21,1.21,1.27,2.83,1.27h.03c1.65-.01,2.66-1.12,2.85-1.34.18-.21.49-.23.69-.06.21.17.23.49.06.69-.33.39-1.57,1.67-3.6,1.69h-.04Z" fill="#fbb900" stroke-width="0"/><path d="M47.16,10.54c-.1,0-.2-.03-.29-.09-.54-.39-1.25-.39-1.78,0-.17.13-.41.13-.58,0-.17-.12-.24-.35-.18-.55.2-.63-.02-1.31-.55-1.7-.17-.12-.24-.35-.18-.55.07-.2.25-.34.47-.34.66,0,1.24-.42,1.44-1.05.13-.41.8-.41.94,0,.2.63.78,1.05,1.44,1.05.21,0,.4.14.47.34.07.2,0,.42-.18.55-.53.39-.76,1.07-.55,1.7.07.2,0,.43-.18.55-.09.06-.19.09-.29.09ZM45.98,9.17c.2,0,.4.02.6.07.03-.4.16-.79.37-1.13-.37-.15-.71-.39-.97-.7-.26.31-.59.55-.96.7.21.34.34.73.37,1.13.2-.05.4-.07.6-.07Z" fill="#fbb900" stroke-width="0"/><path d="M52.82,10.54c-.1,0-.2-.03-.29-.09-.53-.39-1.25-.39-1.78,0-.17.13-.41.13-.58,0-.17-.12-.24-.35-.18-.55.2-.63-.02-1.31-.55-1.7-.17-.12-.24-.35-.18-.55.07-.2.25-.34.47-.34.66,0,1.24-.42,1.44-1.05.13-.41.8-.41.94,0,.2.63.78,1.05,1.44,1.05.21,0,.4.14.47.34.07.2,0,.42-.18.55-.53.39-.75,1.07-.55,1.7.07.2,0,.42-.18.55-.09.06-.19.09-.29.09ZM51.63,9.18c.2,0,.4.02.6.07.03-.4.16-.79.37-1.13-.37-.15-.7-.39-.96-.7-.26.31-.59.55-.96.7.21.34.34.73.37,1.13.2-.05.4-.07.6-.07Z" fill="#fbb900" stroke-width="0"/><path d="M41.95,45.62c-.47-.47-1.07-.73-1.69-.79l.04-.04c.91-.91,1.12-2.28.51-3.33-.44-.75-1.17-1.25-2.02-1.36-.05,0-.09-.01-.14-.01.71-.9.83-2.12.28-3.08-.44-.76-1.17-1.25-2.02-1.36-.04,0-.08,0-.11-.01l3.05-3.05c.91-.91,1.11-2.28.51-3.33-.44-.75-1.17-1.25-2.02-1.36-.85-.11-1.69.17-2.29.77l-5.76,5.76c-1.26-.34-2.54-.38-3.73-.07-1.89.48-3.02,1.62-4.11,2.72-1.18,1.19-2.11,2.13-2.38,3.69-.13.76-.11,1.94.62,3.34-1.8,2.24-1.69,5.51.39,7.59l4.71,4.71c1.23,1.23,2.88,1.91,4.63,1.91s3.4-.68,4.63-1.91l6.92-6.92c1.07-1.07,1.07-2.8,0-3.86ZM21.02,40.94c.2-1.19.9-1.94,2.11-3.16,1.04-1.05,2.03-2.05,3.65-2.46,1-.25,1.92-.2,2.67-.07l-8.07,8.07c-.47-1.07-.44-1.93-.36-2.38ZM41.26,48.79l-6.92,6.92c-1.05,1.05-2.44,1.62-3.93,1.62s-2.89-.58-3.93-1.62l-4.71-4.71c-1.84-1.84-1.84-4.83,0-6.67l14.97-14.97c.33-.33.77-.51,1.23-.51.08,0,.16,0,.24.02.54.07,1.02.39,1.3.88.39.67.24,1.55-.35,2.14l-4.53,4.53-4.46,4.46c-.19.19-.19.5,0,.7.1.1.22.14.35.14s.25-.05.35-.14l4.46-4.46h0c.39-.39.92-.56,1.46-.49.54.07,1.02.39,1.3.88.38.66.23,1.56-.35,2.14l-1.23,1.23-4.41,4.41c-.19.19-.19.5,0,.7.1.1.22.14.35.14s.25-.05.35-.14l4.41-4.41c.39-.39.92-.56,1.47-.49.54.07,1.02.39,1.3.88.39.67.24,1.55-.35,2.14l-1.52,1.52-3.44,3.44c-.19.19-.19.5,0,.7.1.1.22.14.35.14s.25-.05.35-.14l3.44-3.44c.66-.66,1.82-.66,2.47,0,.68.68.68,1.79,0,2.47Z" fill="#000" stroke-width="0"/><circle cx="54.23" cy="4.44" r=".5" fill="#fbb900" stroke-width="0"/><circle cx="3.46" cy="9.83" r=".5" fill="#fbb900" stroke-width="0"/></svg>