<?xml version="1.0" encoding="UTF-8"?><svg id="Capa_1" xmlns="http://www.w3.org/2000/svg" viewBox="0 0 60 60"><path d="M16.64,2.53c.28,0,.5-.22.5-.5s-.22-.5-.5-.5-.5.22-.5.5.22.5.5.5Z" fill="#fbb900" stroke-width="0"/><path d="M56.52,25.83h-5.04V5.01c0-1.92-1.56-3.48-3.48-3.48h-29.03c-.27,0-.5.22-.5.5s.22.5.5.5h29.03c1.37,0,2.48,1.11,2.48,2.48v17.14l-7.96-5.63c-.18-.13-.43-.12-.6.02l-6.91,5.58-11.55-9.76c-.19-.16-.45-.16-.64,0l-15,12.56V5.01c0-1.37,1.11-2.48,2.48-2.48h3.97c.27,0,.5-.22.5-.5s-.22-.5-.5-.5h-3.97c-1.92,0-3.48,1.56-3.48,3.48v23.84c0,1.92,1.56,3.48,3.48,3.48h14.18v3.02H3.48c-1.92,0-3.48,1.56-3.48,3.48v16.16c0,1.92,1.56,3.48,3.48,3.48h2.89c.27,0,.5-.22.5-.5s-.22-.5-.5-.5h-2.89c-1.37,0-2.48-1.11-2.48-2.48v-16.16c0-1.37,1.11-2.48,2.48-2.48h23.45c1.37,0,2.48,1.11,2.48,2.48v16.16c0,1.37-1.11,2.48-2.48,2.48h-15.87c-.27,0-.5.22-.5.5s.22.5.5.5h15.87c1.92,0,3.48-1.56,3.48-3.48v-4.97h17.35c.27,0,.5-.22.5-.5s-.22-.5-.5-.5h-17.35v-3.48c.16.06.32.09.5.09h1.87c.82,0,1.49-.67,1.49-1.49v-12.45c0-.82-.67-1.49-1.49-1.49h-1.87c-.82,0-1.49.67-1.49,1.49v4.7c-.63-.65-1.51-1.05-2.48-1.05h-1.43v-6.04c0-1.37,1.11-2.48,2.48-2.48h28.54c1.37,0,2.48,1.11,2.48,2.48v17.23c0,1.37-1.11,2.48-2.48,2.48h-4.08c-.27,0-.5.22-.5.5s.22.5.5.5h4.08c1.92,0,3.48-1.56,3.48-3.48v-17.23c0-1.92-1.56-3.48-3.48-3.48ZM30.41,31.7c0-.27.22-.5.5-.5h1.87c.27,0,.5.22.5.5v12.45c0,.27-.22.5-.5.5h-1.87c-.27,0-.5-.22-.5-.5v-12.45ZM42.27,17.55l8.22,5.82v2.47h-11.07l-3.62-3.06,6.47-5.22ZM24.5,29.31v2.02h-14.18c-1.37,0-2.48-1.11-2.48-2.48v-2.64l15.32-12.83,14.73,12.45h-9.9c-1.92,0-3.48,1.56-3.48,3.48Z" fill="#000" stroke-width="0"/><path d="M50.1,49.02c-.28,0-.5.22-.5.5s.22.5.5.5.5-.22.5-.5-.22-.5-.5-.5Z" fill="#fbb900" stroke-width="0"/><path d="M8.71,57.47c-.28,0-.5.22-.5.5s.22.5.5.5.5-.22.5-.5-.22-.5-.5-.5Z" fill="#fbb900" stroke-width="0"/><path d="M11.47,52.2c.29.16.6.25.91.25s.63-.08.91-.25l6.43-3.72c.57-.33.91-.92.91-1.58,0-.66-.34-1.25-.91-1.58l-6.43-3.71c-.57-.33-1.25-.33-1.82,0s-.91.92-.91,1.58v7.43c0,.66.34,1.25.91,1.58ZM11.55,43.19c0-.3.16-.57.41-.72.13-.07.27-.11.41-.11s.28.04.41.11l6.43,3.71c.26.15.41.42.41.72,0,.3-.16.57-.41.72l-6.43,3.72c-.26.15-.57.15-.83,0-.26-.15-.41-.42-.41-.72v-7.43Z" fill="#fbb900" stroke-width="0"/><path d="M38.78,10.36c0-2.21-1.8-4.01-4.01-4.01s-4.01,1.8-4.01,4.01,1.8,4.01,4.01,4.01,4.01-1.8,4.01-4.01ZM31.75,10.36c0-1.66,1.35-3.02,3.02-3.02s3.02,1.35,3.02,3.02-1.35,3.02-3.02,3.02-3.02-1.35-3.02-3.02Z" fill="#fbb900" stroke-width="0"/><path d="M37.22,33.13h3.52c.23,1.1,1.2,1.92,2.37,1.92s2.14-.83,2.37-1.92h9.65c.27,0,.5-.22.5-.5s-.22-.5-.5-.5h-9.65c-.23-1.1-1.2-1.93-2.37-1.93s-2.14.83-2.37,1.93h-3.52c-.27,0-.5.22-.5.5s.22.5.5.5ZM43.11,31.21c.79,0,1.43.64,1.43,1.43s-.64,1.43-1.43,1.43-1.42-.64-1.43-1.42c0,0,0,0,0,0,0,0,0,0,0,0,0-.79.64-1.42,1.43-1.42Z" fill="#fbb900" stroke-width="0"/><path d="M37.22,43.72h3.52c.23,1.1,1.2,1.92,2.37,1.92s2.14-.83,2.37-1.92h9.65c.27,0,.5-.22.5-.5s-.22-.5-.5-.5h-9.65c-.23-1.1-1.2-1.93-2.37-1.93s-2.14.83-2.37,1.93h-3.52c-.27,0-.5.22-.5.5s.22.5.5.5ZM43.11,41.79c.79,0,1.43.64,1.43,1.43s-.64,1.43-1.43,1.43-1.43-.64-1.43-1.43.64-1.43,1.43-1.43Z" fill="#fbb900" stroke-width="0"/><path d="M37.22,38.43h10.05c.23,1.1,1.2,1.92,2.37,1.92s2.14-.83,2.37-1.92h3.12c.27,0,.5-.22.5-.5s-.22-.5-.5-.5h-3.12c-.23-1.1-1.2-1.92-2.37-1.92s-2.14.83-2.37,1.92h-10.05c-.27,0-.5.22-.5.5s.22.5.5.5ZM49.64,36.5c.79,0,1.43.64,1.43,1.43s-.64,1.43-1.43,1.43c-.74,0-1.35-.57-1.41-1.29.01-.04.03-.09.03-.13s-.01-.09-.03-.13c.07-.72.67-1.29,1.41-1.29Z" fill="#fbb900" stroke-width="0"/></svg>