<svg version="1.1" xmlns="http://www.w3.org/2000/svg" xmlns:xlink="http://www.w3.org/1999/xlink" viewBox="0 0 256 106">
	<path fill="#808080" d="M40.5,48.5C31,49.2,18.8,51,18.9,54.3C19,57.8,28,64.5,39.8,68.8C40.3,61.7,40.5,54.2,40.5,48.5z M5.6,12.8C2.4,12.9,0.1,11.5,0,9.6c0-1.4,3-5.7,4.9-6.4C6.2,2.7,12.4,0.3,22.8,0c3.9-0.1,10.4,0.4,15.9,1.2c32.2,4.7,65.9,29.1,66.6,50.6C105.7,66.5,93,80.3,68,81c-6.6,0.2-12.7-0.6-18.3-2.1c-0.1,3.6,0.2,5.5-5,5.7c-3.2,0.1-4.4-5-4.8-9.1c-15.1-6.6-24.1-17.4-24.3-21.7c-0.2-6.3,11.4-11.6,25-13.7c0.2-5.2,1.1-18.6,3.9-18.7c1.1,0,3.4,2.5,4.3,6.5c0.8,3.6,0.9,10.1,0.9,11.3l1,0c19-0.6,30.5,5.3,30.7,12.3c0.2,5.4-4.7,8.2-7.2,8.3c-2.5,0.1-5.5-1.4-5.5-2.1c0-1.5,5.4-1.8,5.3-4.3c-0.1-3.6-15.3-5.2-24.6-5.3c0,3.1-0.1,6.9,0,9.5c0.1,2.4,0.2,8.8,0.3,14c4.2,0.9,8.6,1.4,12.9,1.2c10.1-0.3,33-3.9,32.5-21.1C94.4,27.9,46.7,6,21.2,6.7C11.1,7,5.1,8.1,5.1,9.1c0,0.7,4.9,0.9,4.9,2.2C10.1,12.5,7.3,12.7,5.6,12.8z"/>
	<path fill="#808080" d="M112.6,38.9c1.6,0,4,3.9,4.1,6.3c0.1,2.4,0.7,15.2,0.8,18.9c0.2,3.7,0.1,7.2-0.2,8.8c-0.2,1.6-0.8,2.4-3.7,2.5c-2.8,0.1-4.1-1.6-4.4-4.1c-0.2-2.5-0.4-9.5-0.3-13c0.1-3.5,0.3-10.2,0.8-14.4C110.2,39.9,111.3,39,112.6,38.9z"/>
	<path fill="#808080" d="M128.9,10.2c-0.5-1.2-2-3.5-7.7-3.3c-12.2,0.4-21.6,9.3-21.4,16.4c0.1,2.3,1.2,4.3,2.8,6c-0.4,1.2-0.5,1.9-0.5,2.4c0,1.2,1.9,4.5,3.3,4.4c1.2,0,2-1.2,3.2-3c2,0.8,4,1.2,5.6,1.1c11.5-0.3,21.9-11,21.7-17.9C136,13.2,133.9,10.1,128.9,10.2z M111.6,27.2c1.4-2,8.7-11.7,16.3-12c2.2-0.1,2.8,1.3,2.8,2.8c0.1,2.3-4.2,9.2-13.8,9.5C114.8,27.6,113,27.4,111.6,27.2z M105.6,24c-0.2-0.3-0.3-0.7-0.4-1.5c0-1.6,2.7-7.6,9.5-8.1c-1.7,1.2-3.5,2.7-5.3,4.7C107.9,20.9,106.6,22.5,105.6,24z"/>
	<path fill="#808080" d="M142.4,38.3c6.7-0.2,15.2,0.7,15.2,2.8c0,1.2-0.6,3.9-4.2,4.2c-4.2,0.4-25.6,1.3-25.5,3.9c0,1.4,6.5,1.7,12.3,2c6,0.4,15.8,0.6,16.1,10.3c0.2,7.7-2.7,9.3-4,9.9c-1.7,0.8-7.3,2.9-11.6,3c-13,0.4-18.3-7-18.4-10.8c-0.1-3.3,3.4-6.3,9.2-6.5c5.8-0.2,14.8,1.9,14.9,4.3c0.1,1.9-3.9,2.9-5.7,3c-7.9,0.2-7.6-3-12.1-2.8c-2.6,0.1-6.3,5.6,6.8,5.2c11.6-0.3,15.2-4.1,15.1-6.2c-0.1-2.7-8.4-4-13.3-4.3c-4.8-0.2-12.1-0.2-14.6-1.8c-2.5-1.6-2.1-5.1-1.3-8C123.1,40.6,135.7,38.5,142.4,38.3z"/>
	<path fill="#808080" d="M165.4,40.8c4.5-0.1,14.1,20.3,15.7,20.3c1.6,0,0.4-4.8-0.6-10c-2.3-11.8-5.9-17.9-2.5-18c2.5-0.1,10.6,7.8,11.1,22.9c0.2,7-0.8,16.2-7.2,16.4c-6.1,0.2-13-18.9-14.6-18.9c-0.8,0-0.9,11.8-1.1,15.4c-0.2,3.6-1.5,5.5-3.5,5.5c-3,0.1-4.4-2.8-4.5-8.5S159.8,40.9,165.4,40.8z"/>
	<path fill="#808080" d="M211.6,51.8c2.2-0.1,4.1-0.4,3.9,2.4c-0.2,2.8-0.3,3.9-2.6,4l-11.5,0.3c-0.4,1.3-1.4,4.5-1.8,5.9c-0.6,1.7,1.2,1.3,3.4,0.7c2.3-0.6,8.4-1.8,10.9-1.9c2.5-0.1,4.4,3.9,2.9,5.3c-1.4,1.4-9.2,7.9-17.4,8.1c-3.5,0.1-8.2-2.9-8.4-8.3c-0.1-2.9,1.1-6.7,2.2-9.7c-0.3-0.2-0.5-0.6-0.6-1.4c-0.4-1.9-1.2-4.1,2-4.5c0.3,0,0.6-0.1,1-0.1l2.7-5.5c-1.1-0.2-2-0.4-2.8-0.7c-2-0.9-3.5-3.4-3.6-4.4c-0.1-2.4,17.5-3.8,21.5-3.9c4.4-0.1,5.6,0.7,7,2.7c1.4,2,1.9,3.4,1.9,3.9c0,0.5-0.5,1.9-5.8,2c-2.7,0.1-7.1,0.5-11.2,0.7l-1.8,4.8C207.8,52,211.6,51.8,211.6,51.8z"/>
	<path fill="#808080" d="M223.5,68.3c-4.7,9.2-7.9,19-7.7,26.4c0.2,8.3,5.4,11.4,6.9,11.3c1.6,0,1.6-2.5,1.9-4.3c1.6-10.4,4.3-19.5,7.4-27.2c1.2,0.3,2.5,0.5,3.6,0.4c9.6-0.3,20.6-11.6,20.3-23.7c-0.2-6.4-2.6-10.9-6.8-10.8c-6,0.2-14.7,9.2-21.6,20.5c-0.6-4.6,3-11.7,6.1-16.6c2.2-3.5,1.8-7.6,0.9-7.6c-1.3,0-13.6,10.4-13.2,24.6C221.6,64.1,222.3,66.4,223.5,68.3z M236.2,65.4c5.8-11.2,11.7-17.5,13.8-17.6C253.6,47.7,250.6,64,236.2,65.4z"/>
</svg>