<svg version="1.1" xmlns="http://www.w3.org/2000/svg" xmlns:xlink="http://www.w3.org/1999/xlink" viewBox="0 0 72 73">
	<path fill="#00857A" d="M36,0c-9.9,0-18.9,4.1-25.5,10.7C4,17.3,0,26.4,0,36.5s4,19.2,10.5,25.8C17.1,68.9,26.1,73,36,73c19.9,0,36-16.3,36-36.5S55.9,0,36,0z"/>
	<path fill="#FFFFFF" d="M49.4,40L49.4,40c-0.2,0-0.3,0.2-0.5,0.6l0,0c-0.4,0.8-1.1,1.5-2.2,2.1c-1,0.6-2.1,0.9-3.2,0.9c-1.8,0-3.3-0.7-4.5-2.2c-1.2-1.4-1.8-3.3-1.8-5.6c0-2,0.5-3.5,1.6-4.7c1-1.1,2.5-1.7,4.3-1.7c2.3,0,4.1,1.2,5.4,3.5c0.2,0.3,0.3,0.5,0.5,0.5l0,0l0,0l0.2-0.1l0,0l0-0.1l0,0l0-0.3l-0.3-2.6l0,0l0,0l0,0l0,0c0-0.3-0.1-0.5-0.3-0.5c-0.1,0-0.2,0.1-0.3,0.2l-0.2,0.1l-0.2,0l-0.2-0.1l-0.5-0.2c-1.3-0.7-2.7-1-4.2-1c-2.2,0-4.1,0.8-5.6,2.3c-1.5,1.5-2.2,3.4-2.2,5.7c0,2.3,0.7,4.1,2.1,5.6c1.4,1.4,3.3,2.1,5.7,2.1c2,0,3.8-0.6,5.5-1.6c0.3-0.2,0.5-0.4,0.5-0.6l0,0l0-0.2l0.2-1.3l0-0.2l0,0v-0.1l0,0l0,0l0-0.2L49.4,40L49.4,40z"/>
	<path fill="#FFFFFF" d="M17,28.9c-0.1,0-0.2,0-0.3,0l0,0c-0.2,0-0.6,0.1-1.3,0.1L13.8,29c-0.4,0-1.3,0-2.6,0c-1.5,0-2.6,0-3.2-0.1c-0.3,0-0.6,0-0.7,0c-0.3,0-0.5,0.1-0.5,0.3v0l0,0l0,0l0,0l0,0c0,0.2,0.1,0.2,0.3,0.2l0,0c0.4,0,0.7,0.1,0.9,0.2l0,0l0,0c0.2,0.1,0.3,0.2,0.5,0.5l0,0l0,0c0.2,0.3,0.3,0.9,0.3,1.6v9.8c0,0.7-0.1,1.2-0.2,1.5c-0.2,0.3-0.5,0.5-0.9,0.6c-0.2,0-0.3,0.2-0.3,0.3l0.1,0.2l0.2,0h0.1l0,0c0.1,0,0.3,0,0.6,0l0,0l0,0c0.3,0,0.6,0,0.7,0h0.8h0.8c0.5,0,0.8,0,1,0l0,0l0,0c0.3,0,0.5,0,0.7,0l0.3-0.1l0.1-0.2v0l0,0l0,0l0,0l0,0c0-0.2-0.2-0.2-0.5-0.2c-0.5,0-0.9-0.2-1.2-0.5c-0.3-0.3-0.5-0.8-0.5-1.4v-4c0-0.3,0-0.5,0-0.6l0,0l0,0c0-0.1,0.1-0.2,0.4-0.2c0.2,0,0.8,0,1.7,0c0.9,0,1.6,0.1,2.1,0.2c0.2,0,0.4,0.2,0.5,0.3c0.1,0.1,0.2,0.4,0.3,0.8l0,0c0.1,0.3,0.2,0.6,0.3,0.6l0.2-0.1l0.1-0.2c0-0.1,0-0.2,0-0.3l0,0c0-0.2,0-0.8,0-1.6c0-0.3,0-0.5,0-0.7l0,0l0.1-1.1l0,0v-0.1l0-0.2L16,34.2c-0.2,0-0.2,0.1-0.3,0.3l0,0c-0.1,0.5-0.3,0.8-0.6,1c-0.3,0.2-0.8,0.3-1.4,0.3l0,0l-1.3,0l0,0h-0.3l-0.9,0l0,0l0,0c-0.4,0-0.6-0.1-0.6-0.2v-0.3l0,0v-0.2v-4.3c0-0.5,0.1-0.7,0.3-0.8l0,0c0.2-0.1,0.7-0.2,1.5-0.2c0.6,0,1.1,0,1.5,0l1.3,0.1c0.5,0,0.8,0.1,0.9,0.2l0,0l0,0c0.1,0.1,0.2,0.3,0.3,0.7c0,0.2,0.1,0.5,0.1,0.7l0,0c0,0.2,0.1,0.3,0.2,0.3c0.2,0,0.3-0.2,0.3-0.6c0-0.8,0.1-1.4,0.2-1.9l0,0l0,0c0-0.2,0-0.3,0-0.3l-0.2-0.2L17,28.9z"/>
	<path fill="#FFFFFF" d="M33.4,29c-0.1,0-0.2,0-0.5,0l0,0l0,0c-0.2,0-0.7,0-1.5,0c-0.3,0-0.7,0-1-0.1c-0.3,0-0.5-0.1-0.7-0.1l0,0l0,0L29.6,29l-0.1,0.2c0,0.2,0.1,0.3,0.3,0.3l0,0c0.6,0.1,1,0.3,1.3,0.7l0,0c0.2,0.4,0.3,1,0.3,1.9v5.7c0,1.9-0.5,3.3-1.3,4.3c-0.8,1-2.1,1.4-3.8,1.4c-1.9,0-3.2-0.6-4-1.7c-0.6-0.8-0.8-2.1-0.8-4v-5.5l0-0.8c0-0.7,0.1-1.2,0.2-1.4c0.1-0.2,0.4-0.5,0.8-0.5l0,0c0.2,0,0.4-0.2,0.4-0.3l-0.1-0.2l-0.2,0c-0.1,0-0.3,0-0.6,0l0,0l0,0c-0.3,0-0.5,0-0.6,0h-0.8l0,0h-0.8c-0.2,0-0.4,0-0.7,0l0,0l0,0c-0.3,0-0.6,0-0.8,0c-0.3,0-0.5,0.1-0.5,0.3c0,0.2,0.1,0.2,0.3,0.3l0,0l0,0c0.6,0.1,1,0.3,1.3,0.6c0.2,0.3,0.3,0.8,0.3,1.6l0,0l0,0.6V38c0,1.5,0.2,2.7,0.8,3.7l0,0c0.5,0.8,1.2,1.5,2.2,2c1,0.5,2.1,0.7,3.3,0.7c1,0,2.1-0.2,3-0.6s1.6-1,2.2-1.6c0.8-1.1,1.2-2.6,1.2-4.6v-5.4c0-0.9,0.1-1.5,0.2-1.8c0.1-0.3,0.4-0.6,0.8-0.8l0,0c0.2-0.1,0.2-0.2,0.2-0.3L33.5,29L33.4,29z"/>
	<path fill="#FFFFFF" d="M65.9,43.9L65.9,43.9L65.9,43.9c-0.1,0-0.3-0.1-0.7-0.2c-0.3-0.1-0.6-0.2-0.8-0.5l0,0l0,0c-0.2-0.2-0.5-0.6-0.7-1.3l0,0l-5.5-12.9c-0.2-0.3-0.3-0.6-0.5-0.6c-0.2,0-0.3,0.2-0.5,0.6l-5.4,12.8l-0.3,0.7l0,0c-0.2,0.6-0.6,1-1.2,1.3l0,0c-0.2,0-0.2,0.1-0.2,0.3l0.1,0.2l0.2,0.1h0.9h0.3h0.5h0.5c0.1,0,0.5,0,1,0c0.2,0,0.3,0,0.3,0c0.2,0,0.4-0.1,0.4-0.2l0,0l0,0l0,0c0-0.2-0.2-0.3-0.6-0.3l0,0l0,0c-0.3-0.1-0.6-0.2-0.6-0.2l0,0l0,0c-0.1-0.1-0.2-0.2-0.2-0.5c0-0.7,0.5-2.3,1.5-4.7l2.4-5.7l0.2-0.4l0,0c0.1-0.2,0.2-0.3,0.2-0.5l0.1-0.1l0,0c0,0,0.2,0.1,0.2,0.3l0,0l4.2,9.7l0,0c0.3,0.7,0.5,1.3,0.5,1.5c0,0.2,0,0.3-0.1,0.3l0,0l0,0c-0.1,0.1-0.2,0.2-0.5,0.3l0,0l0,0c-0.2,0-0.2,0.2-0.2,0.3l0.1,0.2l0.2,0c0.1,0,0.2,0,0.3,0l0,0c0.3,0,0.6,0,0.7,0l0,0h0.7h1c0.6,0,1,0,1.1,0c0.2,0,0.2,0,0.3,0l0.2-0.1L66,44l0,0L65.9,43.9z"/>
</svg>