<svg version="1.1" xmlns="http://www.w3.org/2000/svg" xmlns:xlink="http://www.w3.org/1999/xlink" viewBox="0 0 256 30">
	<path fill="#D1030F" d="M135.3,10.5c-0.1-0.3-0.2-0.3-0.3,0l-2.2,7.1c-0.1,0.3,0.1,0.5,0.4,0.5h3.9c0.3,0,0.5-0.2,0.4-0.5L135.3,10.5z M129.5,1.3c0.1-0.3,0.4-0.5,0.7-0.5h10c0.3,0,0.6,0.2,0.7,0.5l9.9,27.2c0.1,0.3-0.1,0.5-0.4,0.5h-8.8c-0.3,0-0.6-0.2-0.7-0.5l-0.8-2.4c-0.1-0.3-0.4-0.5-0.7-0.5h-8.9c-0.3,0-0.6,0.2-0.7,0.5l-0.7,2.4c-0.1,0.3-0.4,0.5-0.7,0.5h-8.8c-0.3,0-0.5-0.2-0.4-0.5L129.5,1.3z"/>
	<path fill="#D1030F" d="M240.8,20.5c-4.3,0-5.7-3.1-5.7-5.5c0-3,1.9-5.6,5.7-5.6c4.2,0,5.7,3,5.7,5.5C246.6,17.5,245,20.5,240.8,20.5 M240.9,0.2c-10.2,0-15.1,6.9-15.1,14.8c0,6.3,3.5,14.6,15,14.6c11,0,15.2-7.9,15.2-14.9C256,8.1,252.1,0.2,240.9,0.2"/>
	<path fill="#D1030F" d="M190.7,28.5c0,0.3-0.2,0.5-0.5,0.5h-7.7c-0.3,0-0.5-0.2-0.5-0.5V1.2c0-0.3,0.2-0.5,0.5-0.5h7.7c0.3,0,0.5,0.2,0.5,0.5V28.5z"/>
	<path fill="#D1030F" d="M215.1,0.7c-0.3,0-0.5,0.2-0.5,0.5v14.2c0,0.3-0.1,0.3-0.3,0.1L205,1.2c-0.2-0.2-0.5-0.5-0.8-0.5h-8.6c-0.3,0-0.5,0.2-0.5,0.5v27.2c0,0.3,0.2,0.5,0.5,0.5h7.4c0.3,0,0.5-0.2,0.5-0.5V14.2c0-0.3,0.1-0.3,0.3-0.1l9.4,14.5c0.2,0.3,0.5,0.5,0.8,0.5h8.6c0.3,0,0.5-0.2,0.5-0.5V1.2c0-0.3-0.2-0.5-0.5-0.5H215.1z"/>
	<path fill="#D1030F" d="M45.1,10.5c-0.1-0.3-0.2-0.3-0.3,0l-2.2,7.1c-0.1,0.3,0.1,0.5,0.4,0.5h3.9c0.3,0,0.5-0.2,0.4-0.5L45.1,10.5z M39.2,1.3c0.1-0.3,0.4-0.5,0.7-0.5h10c0.3,0,0.6,0.2,0.7,0.5l9.9,27.2c0.1,0.3-0.1,0.5-0.4,0.5h-8.8c-0.3,0-0.6-0.2-0.7-0.5L50,26.1c-0.1-0.3-0.4-0.5-0.7-0.5h-8.9c-0.3,0-0.6,0.2-0.7,0.5l-0.7,2.4c-0.1,0.3-0.4,0.5-0.7,0.5h-8.8c-0.3,0-0.5-0.2-0.4-0.5L39.2,1.3z"/>
	<path fill="#D1030F" d="M74.6,13.1h-2.5V8.3h2.4c1.2,0,3.2,0.1,3.2,2.4C77.8,13,75.7,13.1,74.6,13.1 M82.7,19.4c3.9-1.7,5.5-5.6,5.5-9.1c0-4.3-2.8-9.5-10.4-9.6v0h-7.1v0h-8.2v28.3h9.7v-8.7h1.2l5.4,8.7h9.7L82.7,19.4z"/>
	<path fill="#D1030F" d="M164.9,13.1h-2.5V8.3h2.4c1.2,0,3.2,0.1,3.2,2.4C168.1,13,166,13.1,164.9,13.1 M173,19.4c3.9-1.7,5.5-5.6,5.5-9.1c0-4.3-2.8-9.5-10.4-9.6v0H161v0h-8.2v28.3h9.7v-8.7h1.2L169,29h9.7L173,19.4z"/>
	<path fill="#D1030F" d="M103,22.5h-1.1v-4.3h0.8c1.7,0,4.3-0.2,4.3,2.1C107,22.4,104.7,22.5,103,22.5 M101.9,7.7h0.8c1.7,0,3.9-0.2,3.9,2.1c0,2.1-1.9,2.2-3.6,2.2h-1.1C101.9,12,101.9,7.7,101.9,7.7z M114.4,14.5v-0.2c2.5-0.8,3.4-3.2,3.4-5.7c0-6.5-5.7-7.9-11.2-7.9H92.1l0,0h-0.2c-0.3,0-0.5,0.2-0.5,0.5v27.3c0,0.3,0.2,0.5,0.5,0.5H97h0h11.6c5,0,10.5-2,10.5-7.8C119.1,17.8,117.5,15.6,114.4,14.5"/>
	<path fill="#D1030F" d="M16.3,13.4v5.7h4.2c-1,1.4-2.7,2.4-5.2,2.4c-4.9,0-6.4-3.6-6.4-6.3c0-3.4,2.1-6.4,6.4-6.4c2.6,0,4.3,1.1,5.3,2.5l8.9-1.2C28.6,5.1,24.5,0,15.3,0C5,0,0,7.1,0,15.1C0,21.5,3.5,30,15.1,30c8.4,0,12.7-4.7,14.4-10c0.7-2.1,0.7-4.1,0.8-6.5L16.3,13.4L16.3,13.4z"/>
</svg>