<svg version="1.1" xmlns="http://www.w3.org/2000/svg" xmlns:xlink="http://www.w3.org/1999/xlink" viewBox="0 0 332 84">
	<path fill="#E31F13" d="M61.8,66.4c-0.5,0.1-0.9,0.2-1.4,0.2c-0.5,0.1-0.9,0.1-1.3,0.1c-0.9,0-1.7-0.1-2.2-0.3c-0.5-0.2-0.9-0.5-1.2-1c-0.3-0.5-0.6-1.2-0.8-2.2c-0.2-1-0.3-2.4-0.3-4.1V21.7c0-0.4-0.3-0.7-0.6-0.8c-2-0.3-3.9-0.5-5.8-0.5c-1.9,0-3.9,0.2-5.9,0.5c-0.4,0.1-0.6,0.4-0.6,0.8v40.1c0,5.6,1.3,9.7,4,12.4C48.4,76.7,52,78,56.2,78h0c1,0,2.2-0.1,3.4-0.2c1.2-0.1,2.3-0.3,3.3-0.6c0.2-0.1,0.4-0.3,0.5-0.5c0.1-0.5,0.2-1,0.2-1.4c0-0.4,0-0.8,0-1.2c0-2.3-0.3-4.6-0.9-7C62.6,66.6,62.2,66.3,61.8,66.4z"/>
	<path fill="#E31F13" d="M95.3,35.4c-3.3-3-7.9-4.4-13.6-4.4c-2.1,0-4.3,0.2-6.8,0.6c-2.4,0.4-4.8,1-7.2,1.9c-0.3,0.1-0.5,0.4-0.5,0.7c0,1.9,0.2,3.5,0.6,4.9c0.4,1.4,1,2.8,1.8,4.3c0.2,0.3,0.5,0.5,0.9,0.4c3.2-1.2,6.2-1.7,9.1-1.7c1.3,0,2.5,0.1,3.6,0.2c1,0.2,1.9,0.5,2.5,0.9c0.6,0.4,1.1,1,1.5,1.7c0.4,0.7,0.6,1.7,0.6,3V48c-1.6-0.1-3.1-0.2-4.4-0.2c-2.2,0-4.4,0.2-6.6,0.7c-2.2,0.5-4.3,1.3-6.1,2.5c-1.9,1.2-3.4,2.7-4.5,4.7c-1.2,2-1.8,4.4-1.8,7.3c0,2.8,0.5,5.2,1.4,7.2c0.9,2,2.3,3.6,4,4.9c1.7,1.3,3.8,2.1,6.2,2.7c2.4,0.5,4.9,0.8,7.7,0.8c3.4,0,6.5-0.3,9.3-0.9c2.7-0.6,5-1.2,7-1.8c0.3-0.1,0.5-0.4,0.5-0.7V49.6C100.3,43.2,98.7,38.4,95.3,35.4z M87.7,67.1c-0.4,0.1-0.9,0.2-1.5,0.3c-0.8,0.1-1.5,0.2-2.3,0.2c-0.7,0-1.5,0-2.4-0.1c-0.9-0.1-1.7-0.3-2.4-0.6c-0.7-0.3-1.3-0.8-1.9-1.5c-0.5-0.6-0.7-1.6-0.7-2.9c0-2,0.6-3.3,2-4.2c1.4-0.9,3.3-1.4,5.9-1.4h0c0.6,0,1.2,0,1.9,0.1c0.5,0.1,1,0.1,1.5,0.2V67.1z"/>
	<path fill="#E31F13" d="M142.3,32c-2-0.3-3.9-0.5-5.9-0.5c-1.9,0-3.8,0.2-5.8,0.5c-0.4,0.1-0.6,0.4-0.6,0.8v33.9c-1.2,0.3-2.6,0.4-4.3,0.4c-1.4,0-2.6-0.2-3.6-0.5c-1-0.3-1.7-0.9-2.4-1.6c-0.6-0.8-1.1-1.8-1.5-3.2c-0.3-1.4-0.5-3.3-0.5-5.6V32.7c0-0.4-0.3-0.7-0.6-0.8c-2-0.3-3.9-0.5-5.9-0.5c-1.9,0-3.9,0.2-5.9,0.5c-0.4,0.1-0.6,0.4-0.6,0.8v23.7c0,4.8,0.6,8.6,1.8,11.6c1.2,2.9,2.8,5.2,4.8,6.8c2,1.6,4.3,2.6,7,3c2.6,0.5,5.3,0.7,8.1,0.7c3.1,0,6.1-0.3,9-0.9c2.8-0.6,5.2-1.2,6.9-1.9c0.3-0.1,0.5-0.4,0.5-0.7V32.7C142.9,32.3,142.6,32,142.3,32z"/>
	<path fill="#E31F13" d="M226.8,45.5c-0.8-2.9-2.1-5.5-3.9-7.6c-1.8-2.2-3.9-3.9-6.6-5.1c-2.6-1.2-5.7-1.9-9.2-1.9c-3.5,0-6.5,0.6-9.2,1.9c-2.6,1.2-4.8,2.9-6.5,5.1c-1.7,2.2-3,4.7-3.9,7.6c-0.9,2.9-1.3,6-1.3,9.3c0,3.3,0.4,6.4,1.3,9.3c0.9,2.9,2.1,5.4,3.9,7.5c1.7,2.2,3.9,3.9,6.5,5.1c2.6,1.2,5.7,1.8,9.2,1.8c3.5,0,6.5-0.6,9.2-1.8c2.6-1.2,4.8-2.9,6.6-5.1c1.7-2.2,3-4.7,3.9-7.5c0.8-2.9,1.2-5.9,1.2-9.2C228,51.5,227.6,48.4,226.8,45.5z M213,64.6c-1.2,2.1-3,3.1-5.9,3.2c-2.8,0-4.6-1-5.8-3.2c-1.2-2.2-1.9-5.4-1.9-9.8c0-4.3,0.7-7.6,1.9-9.8c1.2-2.1,3-3.1,5.8-3.2c2.8,0,4.7,1,5.9,3.2c1.2,2.2,1.9,5.4,1.9,9.8C214.9,59.2,214.2,62.4,213,64.6z"/>
	<path fill="#E31F13" d="M251.8,67c-0.1-0.4-0.5-0.6-0.9-0.6c-0.5,0.1-0.9,0.2-1.4,0.2c-0.5,0.1-0.9,0.1-1.3,0.1c-0.9,0-1.7-0.1-2.2-0.3c-0.5-0.2-0.9-0.5-1.2-0.9c-0.3-0.5-0.6-1.2-0.8-2.2c-0.2-1-0.3-2.4-0.3-4.1V21.7c0-0.4-0.3-0.7-0.6-0.8c-2-0.3-3.9-0.5-5.8-0.5c-1.9,0-3.9,0.2-5.9,0.5c-0.4,0.1-0.6,0.4-0.6,0.8v40.1c0,5.6,1.3,9.7,4,12.4c2.7,2.6,6.2,3.8,10.5,3.8h0c1.1,0,2.2-0.1,3.4-0.2c1.3-0.1,2.3-0.3,3.3-0.6c0.2-0.1,0.4-0.3,0.5-0.6c0.1-0.5,0.2-1,0.2-1.4V74C252.7,71.7,252.4,69.4,251.8,67z"/>
	<linearGradient id="SVGID_1_" gradientUnits="userSpaceOnUse" x1="318.3008" y1="46.3017" x2="324.736" y2="90.2727">
		<stop  offset="0" style="stop-color:#16408A"/>
		<stop  offset="0.2098" style="stop-color:#153C82"/>
		<stop  offset="0.5385" style="stop-color:#12306B"/>
		<stop  offset="1" style="stop-color:#0F2453"/>
	</linearGradient>
	<path fill="url(#SVGID_1_)" d="M312.4,29c-21.2,38.9,8.4,55,8.4,55c-16.1-26.1,11.4-44.3,11.1-47.9c-0.2-2.2-10.9-8.5-16.5-8.5C314,27.6,312.9,28,312.4,29"/>
	<linearGradient id="SVGID_2_" gradientUnits="userSpaceOnUse" x1="331.4242" y1="76.0138" x2="314.4355" y2="65.1859">
		<stop  offset="0" style="stop-color:#E31F13"/>
		<stop  offset="0.2498" style="stop-color:#E01F12"/>
		<stop  offset="0.4434" style="stop-color:#D61E11"/>
		<stop  offset="0.6181" style="stop-color:#C61E0E"/>
		<stop  offset="0.7807" style="stop-color:#AF1C0A"/>
		<stop  offset="0.8352" style="stop-color:#A51C08"/>
		<stop  offset="1" style="stop-color:#801800"/>
	</linearGradient>
	<path fill="url(#SVGID_2_)" d="M319.4,53.6C319.4,53.7,319.4,53.7,319.4,53.6c-0.1,0.3-0.3,0.5-0.4,0.7c0,0,0,0.1,0,0.1c-0.1,0.2-0.2,0.4-0.3,0.6c0,0.1-0.1,0.2-0.1,0.3c-0.1,0.2-0.1,0.3-0.2,0.5c-0.1,0.2-0.1,0.3-0.2,0.5c0,0.1-0.1,0.2-0.1,0.3c-1.3,3.2-2.1,6.6-2.2,10.4c0,0.2,0,0.4,0,0.7c0,0.1,0,0.1,0,0.2c0,0.2,0,0.4,0,0.6c0,0.1,0,0.1,0,0.2c0,0.2,0,0.4,0,0.6c0.2,2.7,0.8,5.6,1.9,8.6c0.3,0.9,0.7,1.8,1.2,2.7c0.2,0.3,0.3,0.6,0.5,1c0,0,0,0,0,0c0.2,0.4,0.4,0.7,0.6,1.1c0,0.1,0.1,0.1,0.1,0.2c0.2,0.4,0.4,0.7,0.7,1.1c0,0,0,0,0,0c0.3-0.4,7.8-10.9,10.3-14.8C333.5,65.6,324.4,61.8,319.4,53.6z"/>
	<linearGradient id="SVGID_3_" gradientUnits="userSpaceOnUse" x1="276.7803" y1="1.256737e-003" x2="276.7798" y2="1.796018e-004">
		<stop  offset="0" style="stop-color:#DF1018"/>
		<stop  offset="0.1831" style="stop-color:#D61218"/>
		<stop  offset="0.4875" style="stop-color:#BC1617"/>
		<stop  offset="0.6374" style="stop-color:#AD1917"/>
		<stop  offset="1" style="stop-color:#6D160C"/>
	</linearGradient>
	<polyline fill="url(#SVGID_3_)" points="276.8,0 276.8,0 276.8,0"/>
	<linearGradient id="SVGID_4_" gradientUnits="userSpaceOnUse" x1="276.7792" y1="1.149109e-004" x2="276.7791" y2="-2.998491e-004">
		<stop  offset="0" style="stop-color:#DF1018"/>
		<stop  offset="0.1831" style="stop-color:#D61218"/>
		<stop  offset="0.4875" style="stop-color:#BC1617"/>
		<stop  offset="0.6374" style="stop-color:#AD1917"/>
		<stop  offset="1" style="stop-color:#6D160C"/>
	</linearGradient>
	<polyline fill="url(#SVGID_4_)" points="276.8,0 276.8,0 276.8,0"/>
	<linearGradient id="SVGID_5_" gradientUnits="userSpaceOnUse" x1="291.3814" y1="54.8221" x2="272.1628" y2="4.8948">
		<stop  offset="0" style="stop-color:#E31F13"/>
		<stop  offset="0.1559" style="stop-color:#DA1F11"/>
		<stop  offset="0.4149" style="stop-color:#C01D0D"/>
		<stop  offset="0.6374" style="stop-color:#A51C08"/>
		<stop  offset="1" style="stop-color:#801800"/>
	</linearGradient>
	<path fill="url(#SVGID_5_)" d="M275.7,69.7c-3.3,4.8,15.1,19.6,19.6,10.7C299.5,72,324.7,22.6,277,0C277.3,0.2,309.7,19.7,275.7,69.7"/>
	<linearGradient id="SVGID_6_" gradientUnits="userSpaceOnUse" x1="275.3583" y1="21.2089" x2="292.4283" y2="23.2279">
		<stop  offset="0" style="stop-color:#16408A"/>
		<stop  offset="0.5055" style="stop-color:#133474"/>
		<stop  offset="0.8352" style="stop-color:#12306B"/>
		<stop  offset="1" style="stop-color:#0F2453"/>
	</linearGradient>
	<path fill="url(#SVGID_6_)" d="M288.7,44.2C298.3,13.6,278.4,0.8,277,0c-0.2,0-7.4,15.2-1.4,19.7C285.2,27.1,287.5,36.7,288.7,44.2z"/>
	<path fill="#E31F13" d="M39.8,76.4L27.1,55.5c-0.2-0.5-0.3-1-0.3-1.6c0-0.5,0.1-1,0.3-1.5l11-17.8c0.1-0.2,0.1-0.5,0-0.7c-0.1-0.2-0.3-0.4-0.5-0.4c-2-0.3-4.1-0.5-6.2-0.5c-2.2,0-4.4,0.2-6.6,0.5c-0.2,0-0.4,0.2-0.5,0.4L13.8,51.4c-0.1,0.1-0.8,1.3-0.8,2.9V21.7c0-0.4-0.3-0.7-0.6-0.7c-2-0.3-3.9-0.5-5.9-0.5c-2,0-4,0.2-5.9,0.5C0.3,21,0,21.3,0,21.7v55.1c0,0.4,0.3,0.7,0.6,0.7C2.5,77.8,4.5,78,6.5,78c2,0,4-0.2,5.9-0.5c0.4-0.1,0.6-0.4,0.6-0.7V54.7c0,0.9,0.3,2,1,3.1l12,19.4c0.1,0.2,0.3,0.3,0.5,0.4c2.2,0.3,4.2,0.5,6.2,0.5c2.1,0,4.3-0.2,6.6-0.5c0.2,0,0.5-0.2,0.6-0.4C39.9,76.8,39.9,76.6,39.8,76.4z"/>
	<path fill="#E31F13" d="M188.6,76.4l-12.7-20.9c-0.2-0.5-0.3-1-0.3-1.6c0-0.5,0.1-1,0.3-1.5l11-17.8c0.1-0.2,0.1-0.5,0-0.7c-0.1-0.2-0.3-0.4-0.5-0.4c-2-0.3-4.1-0.5-6.2-0.5c-2.2,0-4.4,0.2-6.6,0.5c-0.2,0-0.4,0.2-0.5,0.4l-10.3,17.5c-0.1,0.1-0.8,1.3-0.8,2.9V21.7c0-0.4-0.3-0.7-0.6-0.7c-2-0.3-3.9-0.5-5.9-0.5c-2,0-4,0.2-5.9,0.5c-0.4,0.1-0.6,0.4-0.6,0.7v55.1c0,0.4,0.3,0.7,0.6,0.7c1.9,0.3,3.8,0.5,5.9,0.5c2,0,4-0.2,5.9-0.5c0.4-0.1,0.6-0.4,0.6-0.7V54.7c0,0.9,0.3,2,1,3.1l12,19.4c0.1,0.2,0.3,0.3,0.5,0.4c2.2,0.3,4.2,0.5,6.2,0.5c2.1,0,4.3-0.2,6.6-0.5c0.2,0,0.4-0.2,0.6-0.4C188.7,76.8,188.7,76.6,188.6,76.4z"/>
</svg>