<svg version="1.1" xmlns="http://www.w3.org/2000/svg" xmlns:xlink="http://www.w3.org/1999/xlink" viewBox="0 0 256 116">
	<path fill="#989590" d="M14.4,66.1h2.9v20.5h-2.9v-8.9H2.9v8.9H0V66.1h2.9V75h11.4V66.1z"/>
	<path fill="#989590" d="M34.7,65.8c3.1,0,5.8,1,7.9,3c2.1,2,3.1,4.5,3.1,7.5c0,3-1.1,5.5-3.2,7.5c-2.1,2-4.8,3-8,3c-3.1,0-5.6-1-7.7-3c-2-2-3.1-4.5-3.1-7.4c0-3.1,1-5.6,3.1-7.6C29,66.8,31.6,65.8,34.7,65.8z M34.9,68.6c-2.3,0-4.2,0.7-5.7,2.2c-1.5,1.5-2.3,3.3-2.3,5.6c0,2.2,0.8,4,2.3,5.5c1.5,1.5,3.4,2.2,5.7,2.2c2.3,0,4.2-0.8,5.7-2.2c1.5-1.5,2.3-3.4,2.3-5.6c0-2.2-0.8-4-2.3-5.5C38.9,69.4,37.1,68.6,34.9,68.6z"/>
	<path fill="#989590" d="M48.6,66.1h17v2.6h-7.1v17.9h-2.9V68.7h-7V66.1z"/>
	<path fill="#989590" d="M71.4,66.1h11.5v2.6h-8.6V75h8.3v2.6h-8.3V84h8.9v2.6H71.4V66.1z"/>
	<path fill="#989590" d="M89.3,66.1h2.9v17.8h9.2v2.7H89.3V66.1z"/>
	<path fill="#989590" d="M112,78l-2.2-1.4c-1.4-0.8-2.4-1.7-3-2.5c-0.6-0.8-0.9-1.8-0.9-2.9c0-1.6,0.6-2.9,1.7-3.9c1.1-1,2.6-1.5,4.3-1.5c1.7,0,3.3,0.5,4.7,1.4v3.3c-1.5-1.4-3-2.1-4.7-2.1c-1,0-1.7,0.2-2.3,0.7c-0.6,0.4-0.9,1-0.9,1.7c0,0.6,0.2,1.2,0.7,1.7c0.4,0.5,1.2,1.1,2.2,1.7l2.2,1.3c2.5,1.5,3.7,3.4,3.7,5.7c0,1.6-0.5,3-1.6,4c-1.1,1-2.5,1.5-4.3,1.5c-2,0-3.8-0.6-5.5-1.9v-3.7c1.6,2,3.4,3,5.5,3c0.9,0,1.7-0.3,2.3-0.8c0.6-0.5,0.9-1.2,0.9-1.9C114.6,80.3,113.7,79.1,112,78z"/>
	<path fill="#989590" d="M0,95.3h2.9v20.5H0V95.3z"/>
	<path fill="#989590" d="M26,95.3h2.8v20.5h-2.5L12.7,100v15.8H9.9V95.3h2.4L26,111.2V95.3z"/>
	<path fill="#989590" d="M33.8,95.2h17v2.6h-7.1v17.9h-2.9V97.9h-7V95.2z"/>
	<path fill="#989590" d="M56,95.3h11.5v2.6h-8.6v6.2h8.3v2.6h-8.3v6.4h8.9v2.6H56V95.3z"/>
	<path fill="#989590" d="M73.4,115.8V95.3h5.1c2.1,0,3.7,0.5,4.9,1.5c1.2,1,1.8,2.4,1.8,4.2c0,1.2-0.3,2.2-0.9,3.1c-0.6,0.9-1.4,1.5-2.6,2c0.7,0.4,1.3,1,1.9,1.8c0.6,0.7,1.5,2,2.6,3.9c0.7,1.2,1.3,2,1.7,2.6l1.1,1.5h-3.5l-0.9-1.4c0-0.1-0.1-0.1-0.2-0.2l-0.6-0.8l-0.9-1.5l-1-1.6c-0.6-0.8-1.2-1.5-1.7-2c-0.5-0.5-1-0.9-1.4-1.1c-0.4-0.2-1.1-0.3-2-0.3h-0.8v8.9H73.4z M77.2,97.8h-0.9v6.5h1.1c1.5,0,2.5-0.1,3-0.4c0.5-0.3,1-0.6,1.3-1.2c0.3-0.5,0.5-1.1,0.5-1.8c0-0.6-0.2-1.2-0.5-1.8c-0.3-0.5-0.8-0.9-1.4-1.1C79.6,97.9,78.6,97.8,77.2,97.8z"/>
	<path fill="#989590" d="M109.9,95.3h2.8v20.5h-2.5L96.5,100v15.8h-2.7V95.3h2.4l13.7,15.9V95.3z"/>
	<path fill="#989590" d="M125.9,95.2h2l9.1,20.6h-3l-2.7-6.1h-8.7l-2.5,6.1h-3L125.9,95.2z M130.2,107.1l-3.3-7.4l-3,7.4H130.2z"/>
	<path fill="#989590" d="M137,95.2h17v2.6h-7.1v17.9h-2.9V97.9h-7V95.2z"/>
	<path fill="#989590" d="M159.2,95.3h2.9v20.5h-2.9V95.3z"/>
	<path fill="#989590" d="M179,95c3.1,0,5.8,1,7.9,3c2.1,2,3.1,4.5,3.1,7.5c0,3-1.1,5.5-3.2,7.5c-2.1,2-4.8,3-8,3c-3.1,0-5.6-1-7.7-3c-2-2-3.1-4.5-3.1-7.4c0-3.1,1-5.6,3.1-7.6C173.2,96,175.8,95,179,95z M179.1,97.8c-2.3,0-4.2,0.7-5.7,2.2c-1.5,1.5-2.2,3.3-2.2,5.6c0,2.2,0.7,4,2.3,5.5c1.5,1.5,3.4,2.2,5.7,2.2c2.3,0,4.2-0.7,5.7-2.2c1.5-1.5,2.3-3.4,2.3-5.6c0-2.2-0.8-4-2.3-5.5C183.2,98.5,181.3,97.8,179.1,97.8z"/>
	<path fill="#989590" d="M212.1,95.3h2.8v20.5h-2.5L198.8,100v15.8H196V95.3h2.4l13.7,15.9V95.3z"/>
	<path fill="#989590" d="M228.1,95.2h2.1l9.1,20.6h-3l-2.7-6.1h-8.7l-2.5,6.1h-3L228.1,95.2z M232.4,107.1l-3.3-7.4l-3,7.4H232.4z"/>
	<path fill="#989590" d="M243.9,95.3h2.9v17.8h9.2v2.7h-12.1V95.3z"/>
	<path fill="#989590" d="M198.2,8.9c-0.2-5.8,2-8.6,5.3-8.6c1.9,0,3.2,0.6,4.5,1.4c1.2,0.7,2.2,1.3,3.1,1.3c1.2,0,1.6-0.6,1.9-3h4.7c0.1,6-1.9,8.5-5.5,8.5c-1.9,0-3.2-0.6-4.5-1.3c-1.2-0.7-2.1-1.3-3-1.3c-0.9,0-1.5,1-1.7,3H198.2z"/>
	<path fill="#989590" d="M0,58.6l9-46l14.6,33.3l15.1-33.3l8,46h-6.6L36,32.7L23.5,60.6L11.2,32.7L6.6,58.6H0z"/>
	<path fill="#989590" d="M95,21.8H78v10.3h16.6v6.1H78v14.3H95v6.1H71.6V15.8H95V21.8z"/>
	<path fill="#989590" d="M125.7,15.8v36.7h12.5v6.1h-18.9V15.8H125.7z"/>
	<path fill="#989590" d="M166.5,15.8v42.8h-6.4V15.8H166.5z"/>
	<path fill="#989590" d="M217.6,48.2h-18.2l-4.7,10.4h-6.9l21.1-45.5L229,58.6h-7L217.6,48.2z M214.9,42.1l-6.3-14.6L202,42.1H214.9z"/>
</svg>
