<svg version="1.1" xmlns="http://www.w3.org/2000/svg" xmlns:xlink="http://www.w3.org/1999/xlink" viewBox="0 0 256 182">
	<polygon fill="#FFFFFF" points="27,52.2 210.1,28.7 206.6,93.3 175,131.5 23.6,116.5 "/>
	<path fill="#3FAE2A" d="M193.9,179.5c-10.7-6.5-47.9-16.2-94-16.1c-49.3,0-84.8,9.8-95.7,16.1c-0.6,0.4-0.8,0.9-0.6,1.5c0.2,0.4,0.6,0.8,1.1,0.8c0.2,0,0.2,0,0.4,0c0.2,0,9.3-2.5,25.5-4.8c26.8-4,51.4-4.9,67.3-4.9c32.3,0,64.3,3.4,95.3,9.8c0.2,0,0.2,0,0.4,0c0.8,0,1.3-0.5,1.3-1.3C194.6,180.1,194.3,179.7,193.9,179.5"/>
	<path fill="#C6093B" d="M96.1,59.1c-3.8,0.4-6.5,3.6-6.7,7.4l-0.8,12.8l12.4-1.3l0.8-12.8C102.2,61.4,99.9,58.6,96.1,59.1"/>
	<path fill="#C6093B" d="M49.3,65.2L43.2,66l-1,16.8l5.5-0.6c4.9-0.6,9.7-2.3,10.1-9.6C58.1,67.6,54.2,64.5,49.3,65.2"/>
	<path fill="#C6093B" d="M254.8,50.5l-21.7-28.1c1.1-0.3,2.1-0.9,2.9-1.4c3.8-2.3,6.1-6.5,6.8-11.6c0.6-3.8,0-6.7-0.2-6.9c-0.2-1-1-1.8-1.9-1.8c-1,0-1.9,0.3-2.5,1.3c0,0-4.9,8.6-13.1,8.5c-1,0-2.1-0.1-3.2-0.5c-0.2,0-0.4,0-0.6,0c-6.8-3.1-14.5-0.1-14.5-0.1l-1.1,0.3c-1,0.2-2.5,0.1-2.5,0.1c-13.9,0.1-17.9-8.1-18.1-8.7c-0.4-1.2-1.3-1.8-2.5-1.6c-1.1,0.2-2.1,0.9-2.5,2c-0.2,0.6-2.9,10.2,2.7,18.4L48.3,39.6c-14.5,2.2-18.6,2.2-23.6,4.5c-7.6,3.4-17.3,12.4-17.9,28l-2.1,40.8c-2.7,3.7-4.6,9-4.8,13.6v1c-0.4,6.3,3.2,13.7,5.5,16.8c0.6,1,1.5,0.8,2.3-0.1c2.5-3.2,6.8-10.5,7.2-16.7v-1c0.2-4.6-1.1-10-3.4-13.7l0.4-7.2c3,3.5,14.3,16.3,3.4,35.8c0,0-1,1.9-1,3.6l-0.8,16.4c0,0-0.4,3.4,2.3,2.6c5.5-1.5,9.5-2.7,19.4-4.7c0,0,2.3-0.3,3-2.9l8.9-23.9c0,0,1.3-4.7,6.1-4.4l103.3,10.3l3.2,18.3c0,0,0.2,2.5,2.5,3c8.6,1.6,11.8,1.7,18.3,3.5c0,0,2.5,0.3,2.9-2.8l3.8-23L226,69.5l15.8,0c4.9,0,8-1.1,10.1-4.6l2.5-3.9C256.5,56.6,256.5,52.8,254.8,50.5 M47.6,94.4L41.7,95l-1,16.4c0,0.2-0.2,0.4-0.4,0.6c-0.2,0.2-0.4,0.2-0.6,0.2l-10.5-0.7c-0.6,0-0.8-0.4-0.8-0.8l2.9-53.9c0-0.4,0.4-0.8,0.8-0.7l18.1-2.4c11.4-1.7,20.4,6.1,19.8,17.5C69.3,85.6,59,93.1,47.6,94.4 M112.1,116.9c0,0.2-0.2,0.4-0.4,0.6s-0.4,0.2-0.6,0.2l-11-0.8c-0.6,0-0.8-0.4-0.8-0.8l1.3-25.3L88.3,92l-1.1,23.1c0,0.2-0.2,0.4-0.4,0.6c-0.2,0.2-0.4,0.2-0.6,0.2l-11-0.8c-0.6,0-0.8-0.4-0.8-0.8l2.5-46.7c0.6-10.9,9.3-20.3,20.2-21.4c10.8-1,18.6,7,18.1,17.8L112.1,116.9z M158.9,51.1c0,0.4-0.4,0.8-0.8,0.7l-11.8,1.5l-3.6,65.9c0,0.2-0.2,0.4-0.4,0.6c-0.2,0.2-0.4,0.2-0.6,0.2l-11.2-0.8c-0.6,0-0.8-0.4-0.8-0.8l3.2-63.1L120.5,57c-0.2,0-0.6,0-0.8-0.2c-0.2-0.2-0.2-0.4-0.2-0.6l0.6-11.4c0-0.4,0.4-0.8,0.8-0.7l37.5-5c0.2,0,0.6,0,0.8,0.2c0.2,0.2,0.2,0.4,0.2,0.6L158.9,51.1z M204.7,63c-0.4,8.6-6.5,16.6-14.3,19.7L189.7,99c0,0.4,0,1-0.4,1.3l-12.2,22.1c-0.2,0.4-0.4,0.4-1,0.3c-0.4,0-0.6-0.4-0.6-0.8l2.1-38.1c-7.6-2-12.7-8.7-12.4-17.2l1.5-28c0-0.4,0.4-0.8,0.8-0.7l11.2-1.5c0.2,0,0.6,0,0.8,0.2c0.2,0.2,0.2,0.4,0.2,0.6l-1.5,27.6c-0.2,3.8,2.7,6.6,6.5,6.1c3.8-0.2,7-3.6,7.2-7.4l1.5-28.6c0-0.4,0.4-0.8,0.8-0.7l11.2-1.5c0.2,0,0.6,0,0.8,0.2c0.2,0.2,0.2,0.4,0.2,0.6L204.7,63z"/>
</svg>