<svg version="1.1" xmlns="http://www.w3.org/2000/svg" xmlns:xlink="http://www.w3.org/1999/xlink" viewBox="0 0 254 112">
	<path fill="#E2231A" d="M119.9,98.8c-0.6,0.2-10.7,3.5-29.9,3.6c-13.4,0.1-23.9-2.6-37.7-2.5c-3.2,0-7.3,0.3-11.8,0.8C56.3,92.9,71,74,73.3,56.1c1.7-13.5,0.6-28.4-17.4-32.5c-26.6-6-52.4,23.9-55.4,47.9C-2.1,92,6.5,100.7,21.1,104c0.3,0.1,0.6,0.1,0.8,0.2c-6.2,1.7-11.6,4-14.5,6.9c-0.5,0.5,0,1.1,0.8,0.9c0.9-0.2,13-3.4,22.5-3.5c15.8-0.1,24.7,3.3,40.5,3.2c30.3-0.3,48.9-11,49.4-11.4C121.3,99.7,121.4,98.4,119.9,98.8 M18.3,69.2c2.8-22.8,17.2-41.9,28.2-39.4c10,2.3,11.8,15.2,10.3,27.3c-3,24-17,42.1-28.3,39.5C22.8,95.4,15.8,89,18.3,69.2"/>
	<path fill="#E2231A" d="M86.7,39.5c7.6,0.1,8,5.5,7.9,9.6c-0.2,6.4-8.2,22.7-8.5,30.9c0,1.1,0.3,2.7,1.7,2.7c4.6,0.1,14.9-10.5,20.2-24.8c2.4-6.5,3.6-10.6,6.3-18.5c0.6-1.9,1.7-3.3,3.2-3.6c1.1-0.3,5.9-1.3,7.1-1.6c4.1-0.9,4.3,0.7,3.1,4c-1.8,4.8-11.2,30.5-11.6,40.3c-0.2,5.5,2.2,7.9,5.3,9.8c-1.7,0.9-5.2,1.7-8.3,1.7c-4.8-0.1-10.5-1.9-10.2-10.7c0.1-1.7,0.2-3.4,0.2-4.1c-5,6.7-15.7,19.4-25,19.2c-3.9-0.1-6.5-3.1-6.3-9.5c0.4-12,9-26.8,9.3-36.8c0.1-3-0.8-6.4-1.8-7.2C81.1,39.9,84.2,39.4,86.7,39.5"/>
	<path fill="#E2231A" d="M169.4,27.3c1.1-0.1,4.3-0.2,5.8-0.2c3.2,0,4.1,2.7,3.2,6c-1.4,4.9-9.3,30.8-9.3,36.3c0,3.4,1.5,7.8,5.8,10.3c-1.3,0.8-4.1,2.2-8.2,2.2C160.9,82,156,79,156,70.7c0-1.3,0.2-3.4,0.5-4.9c-5.1,8.9-14,20.2-25,20.4c-5.6,0.1-6.9-4.3-6.9-12c0-13.1,9.6-41.1,34.2-46C161.8,27.6,166.2,27.4,169.4,27.3 M137.6,70.8c-0.1,4.1,1.1,5.3,2.6,5.3c2.1,0,14.3-8.4,20.4-28.1c1.2-4,3.6-11.4,4.8-15.4c-0.9-0.1-2.1-0.2-2.6-0.2C142.8,32.7,137.7,68.1,137.6,70.8"/>
	<path fill="#E2231A" d="M195.6,0c7.7-0.6,8.8,5.2,8.9,8.3c0.2,6.8-13.2,48.7-12.9,57.9c0.1,3.8,0.8,7.3,5.7,9.2c-1.3,1.8-3.8,3-7.5,3.3c-4.8,0.4-11.3-1.1-11.6-10.5c-0.4-13.4,13.9-51.2,13.6-60.5c0-1.3-0.6-3.8-2.9-5.7C190.3,1.3,193.3,0.2,195.6,0"/>
	<path fill="#E2231A" d="M209.7,21.4c8.7,0.2,8.4,9,8.3,11.5c-0.2,4.8-3.2,22.4-3.3,27.3c-0.1,3.4,0.2,6.1,2.1,6.2c2.2,0,3.5-1.2,4.6-2c5.9-13.8,17.1-41.4,17.5-42.6c1.4-3.5,2.6-4.4,5-5c1.7-0.5,5-1.1,6.5-1.3c3.7-0.6,4.4,0.4,3.2,3.5c-1.1,2.8-17.2,41.9-20.2,48.6c-10.9,24.2-28.2,29.1-40.6,28.7c-3.9-0.1-7.8-2.2-8.4-3.4c-0.4-0.8,0.1-1.4,1.2-1.2c1.1,0.3,3.7,0.5,5.5,0.5c14.4,0.3,22-10.3,28.3-22.4c-1.6,1.3-6.5,5-11,4.9c-5.9-0.1-6.7-6.2-6.4-13.6c0.1-3.6,3.6-27.7,3.9-34c0.1-2-0.2-3.6-1.1-4.9C205.9,21.8,208.3,21.4,209.7,21.4"/>
</svg>