<svg version="1.1" xmlns="http://www.w3.org/2000/svg" xmlns:xlink="http://www.w3.org/1999/xlink" viewBox="0 0 482 90">
	<path fill="#0082A4" d="M438.1,82.2c-8.2,0-6.3-10-6.3-10l8-56.3h9.9c1,0,1.8,0.1,2.4,0.3c0.6,0.2,1.2,0.4,1.6,0.8c0.4,0.4,0.7,0.8,0.8,1.4c0.2,0.6,0.2,1.2,0.3,2l0.2,5.4c3-3.7,6.2-6,9.5-8.1c3.4-2.2,6.8-3.3,10.4-3.3c3.1,0,5.4,0.7,7,2.2l-4.6,14.6c-0.3,0.9-0.7,1.5-1.3,1.9c-0.6,0.4-1.3,0.5-2.1,0.5c-0.7,0-1.6-0.1-2.5-0.3c-1-0.2-2.2-0.3-3.7-0.3c-5.2,0-9.8,2.8-13.5,8.3l-5.8,40.8C442.3,82.2,444.3,82.2,438.1,82.2z"/>
	<path fill="#0082A4" d="M123,52.9c0,0-4,23.2-4.6,26.1c-0.8,4.1-6.9,3.7-6.9,3.7H99.6l12.3-72.6l1.5-8.8c4.1-0.4,8.1-0.7,11.9-0.9c3.8-0.2,7.6-0.3,11.1-0.3c5.8,0,10.7,0.6,14.8,1.7c4.1,1.1,7.5,2.7,10.1,4.7c2.6,2,4.5,4.4,5.7,7.1c1.2,2.7,1.8,5.6,1.8,8.7c0,7.6-1.9,13.7-5.6,18.3c-3.7,4.6-8.9,7.8-15.6,9.8l17.3,37c-1.8,0.9-3.6,1.6-5.3,2c-1.7,0.4-3.5,0.6-5.6,0.6c-3.5,0-6-0.7-7.6-2c-1.6-1.3-3.1-3.5-4.5-6.7l-13-28.5H123z M149.3,23.4c0-3.2-1.3-5.7-4-7.6c-2.7-1.9-5.9-2.8-9.9-2.8c-1.3,0-2.4,0-3.5,0.1c-1.1,0-1.9,0.1-2.5,0.2l-4.1,26.6h4.7c2.8,0,5.4-0.3,7.8-0.8c2.4-0.5,4.4-1.4,6.1-2.7c1.7-1.3,3-2.9,3.9-5C148.8,29.1,149.3,26.5,149.3,23.4z"/>
	<path fill="#0082A4" d="M337.6,15c4.2,0,8,0.7,11.4,2c3.3,1.3,6.1,3.3,8.4,5.9c2.2,2.6,3.8,5.7,4.8,9.4c1,3.7,1.2,7.9,0.6,12.6c-0.2,1.5-0.4,2.7-0.6,3.6c-0.2,0.9-0.6,1.7-0.9,2.2c-0.4,0.5-0.9,0.9-1.5,1.1c-0.6,0.2-1.3,0.3-2.2,0.3h-37.5c0,5.5,1.1,9.4,3.4,11.9c2.3,2.5,6.2,3.7,10.3,3.7c2.2,0,4.2-0.3,5.8-0.8c1.7-0.5,3.2-1.2,4.5-1.8s1.4-0.7,2.6-1.3c1.1-0.5,5.8-2,9,2.1l3.5,5.2c-2.3,2.3-4.6,4.2-7.1,5.6c-2.5,1.5-4.9,2.6-7.4,3.4c-2.5,0.8-5,1.4-7.4,1.7c-2.4,0.3-4.8,0.5-6.9,0.5c-4.5,0-8.6-0.7-12.3-2.2c-3.7-1.5-6.9-3.7-9.5-6.6c-2.6-2.9-4.5-6.6-5.6-11c-1.2-4.4-1.4-9.5-0.7-15.2c0.5-4.4,1.8-8.5,3.7-12.4c1.9-3.9,4.4-7.3,7.5-10.3c3.1-2.9,6.7-5.3,10.8-7C328.2,15.9,332.7,15,337.6,15z M336.3,28.5c-3.7,0-6.5,0.6-9.5,3.2c-2.4,2.1-4,5.2-5.2,9.2h24.4c0.2-1.6,0.2-3.1,0-4.5c-0.2-1.5-0.7-2.8-1.4-3.9c-0.7-1.2-1.8-2.1-3.1-2.8C340.1,28.8,338.4,28.5,336.3,28.5z"/>
	<path fill="#0082A4" d="M412.6,79.7c-12.2,3.8-30.3,5.6-41.4-2.6c-2.8-2-4.1-5-4.8-7.3c-1.9-6.2-0.4-11.9,3.3-16.5c6.6-8.2,18.6-10.9,29.7-12.2c0.6-0.1,9.5-0.7,9.5-1.1l0.3-2.7c0.5-3.8,0.7-4.5-0.7-6.2c-2.5-2.9-9.4-2.1-12.9-1.5c-3.1,0.5-10.6,3.1-12.3,3.5c-1.4,0.3-2.9,0.2-4.3-0.8c-1.9-1.3-5.1-9.5-5.1-9.5c-0.3-0.5,4.9-3.1,5.2-3.3c6.5-3.1,13.7-4.9,20.8-5.1c5.8-0.2,12.1,0.7,17.4,3.3c2.9,1.4,5,3,6.4,5.7c1.4,2.9,1.4,6.2,1.2,9.4c-0.3,5.1-2.7,21.9-4,32.5C420.1,73.8,418.5,77.9,412.6,79.7z M390,69.9c3-0.1,5.4-0.3,8-0.9c1.6-0.4,2.8-0.6,4.2-1c3.2-0.9,3.1-2,3.3-3.7c0.2-1.6,1.7-11.8,1.7-11.8c-7.9,0.3-17.7,0.6-22.3,6.6c-0.8,1.1-1.3,2.5-1.5,3.7c-0.3,2.5,0.3,4,1.5,5.2C386.1,69.3,388,70,390,69.9z"/>
	<path fill="#0082A4" d="M301.9,24.9c-2.6,5.4-27.9,52.5-29.4,54.2c-0.9,1-2.4,3.1-8.8,3.1c-3.4,0-6.2-0.7-8.1-1.4c-2.9-0.7-3.4-4.7-3.4-4.7l-8.3-43.4c-0.2-0.9-0.5-1.6-0.9-2.1c-0.4-0.5-1.2-0.8-2.5-0.8l-7.6-0.1L234,25c0.9-4.4,2.4-7.3,4.6-8.9c2.2-1.6,4.2-2.4,7.9-2.4c2.9,0,5.3,0.4,7.1,1.2c1.8,0.8,3.1,1.9,4.1,3.2c0.9,1.3,1.6,2.9,2,4.8c0.4,1.8,0.7,3.8,1,5.9c0,0,4.9,32.1,4.9,34.3l22.1-48.2c1.2,0,7.4,0.2,8.9,0.4C298.7,15.5,305.9,16.5,301.9,24.9z"/>
	<path fill="#0082A4" d="M77,8.4c4.7-1,7.7,2.9,6.6,8.8l-8,43c-1.1,5.9-5.6,9.8-9.9,8.7l-29.1-6.2c-4.4-1.1-7-6.8-5.9-12.7l4.8-25.4c1.1-5.9,5.9-11.6,10.6-12.6L77,8.4z"/>
	<path fill="#B10057" d="M31.9,8.7l33.7-4.3c0.4,1.4,0.4,3.3,0,5.2L55.1,65.7c-0.4,2.1-1.2,3.8-2.3,5.4l-31.4-6.6c-4.5-1.1-7.2-7-6.1-13L21,21.6C22.1,15.6,27,9.8,31.9,8.7z"/>
	<path fill="#87004E" d="M45.9,11.9l19.7-2.2c0,0,0,0.1,0,0.1L55.1,65.8c0,0.2-0.1,0.5-0.2,0.7l-18.4-3.9c-4.4-1.1-7-6.8-5.9-12.7l4.8-25.4C36.4,18.6,41.2,12.9,45.9,11.9z"/>
	<path fill="#BB366B" d="M67.9,4.2l-2.3,0.3c0.3,1.4,0.4,2.9,0.1,5L55.2,65.5c-0.4,2.1-1.2,4-2.3,5.5l2.4,0.5c4.5,1.1,9.1-2.9,10.2-8.9l9.3-49.5C75.8,7.2,72.7,3.1,67.9,4.2z"/>
	<path fill="#26A4BC" d="M21.5,64.5c-4.5-1.1-7.2-7-6.1-13L21,21.6c1.1-6,6-11.8,10.9-12.9l33.7-4.3c-0.9-3.2-3.4-5-6.9-4.2L17.8,5.5c-5,1.1-10,7.1-11.1,13.2L0.3,52.9c-1.2,6.2,1.7,12.2,6.2,13.3l38.3,8.4c3,0.8,6-0.7,8.1-3.6L21.5,64.5z"/>
	<path fill="#0082A4" d="M77,8.4l-2.3,0.3c0.3,1.3,0.3,2.8,0,4.5l-9.3,49.5c-0.4,2.2-1.3,4.1-2.4,5.6l2.6,0.6c4.4,1.1,8.8-2.8,9.9-8.7l8-43C84.7,11.3,81.7,7.4,77,8.4z"/>
	<path fill="#0082A4" d="M205,15c4.2,0,8,0.7,11.4,2c3.3,1.3,6.1,3.3,8.4,5.9c2.2,2.6,3.8,5.7,4.8,9.4c1,3.7,1.2,7.9,0.6,12.6c-0.2,1.5-0.4,2.7-0.6,3.6c-0.2,0.9-0.6,1.7-0.9,2.2c-0.4,0.5-0.9,0.9-1.5,1.1c-0.6,0.2-1.3,0.3-2.2,0.3h-37.5c0,5.5,1.1,9.4,3.4,11.9c2.3,2.5,6.2,3.7,10.3,3.7c2.2,0,4.2-0.3,5.8-0.8c1.7-0.5,3.2-1.2,4.5-1.8s1.4-0.7,2.6-1.3c1.1-0.5,5.8-2,9,2.1l3.5,5.2c-2.3,2.3-4.6,4.2-7.1,5.6c-2.5,1.5-4.9,2.6-7.4,3.4c-2.5,0.8-5,1.4-7.4,1.7c-2.4,0.3-4.8,0.5-6.9,0.5c-4.5,0-8.6-0.7-12.3-2.2c-3.7-1.5-6.9-3.7-9.5-6.6c-2.6-2.9-4.5-6.6-5.6-11c-1.2-4.4-1.4-9.5-0.7-15.2c0.5-4.4,1.8-8.5,3.7-12.4c1.9-3.9,4.4-7.3,7.5-10.3c3.1-2.9,6.7-5.3,10.8-7C195.6,15.9,200.1,15,205,15z M203.7,28.5c-3.7,0-6.5,0.6-9.5,3.2c-2.4,2.1-4,5.2-5.2,9.2h24.4c0.2-1.6,0.2-3.1,0-4.5c-0.2-1.5-0.7-2.8-1.4-3.9c-0.7-1.2-1.8-2.1-3.1-2.8C207.5,28.8,205.8,28.5,203.7,28.5z"/>
</svg>