<!-- Generator: Adobe Illustrator 17.1.0, SVG Export Plug-In  -->
<svg version="1.1" xmlns="http://www.w3.org/2000/svg" xmlns:xlink="http://www.w3.org/1999/xlink" viewBox="0 0 256 118">
	<path fill="#E63229" d="M78.2,104.3c3-5.2,4.1-11.7,3-17.8c-0.6-2.9-1.6-5.7-3.1-8.1c0-3-0.2-7.2,1.6-10.9c1.4-2.6,2.7-3.4,4.5-4.3c2.3-1.1,5.6-1.7,8.9-1.7h13.9v-9.2h-26V36.8h24.3c2.2,0,4.5,0.2,6.3,0.5c3.1,0.6,5.3,1.4,7.6,3.5c3.4,3.4,4.5,7.4,4.6,11.5v62.7H91.3c-1.6,0-3.1-0.2-4.4-0.5c-3.4-0.5-6.3-3.5-7.6-6.5C78.8,106.9,78.4,105.6,78.2,104.3L78.2,104.3z M93,75.9v25.3h13.9V75.9H93L93,75.9z"/>
	<path fill="#E63229" d="M161.2,10.9h17.3v104.7h-29.5c-2.2,0-4.5-0.2-6.4-0.7c-1.9-0.4-3.3-1.1-4.6-1.9c-4.7-3.4-6.2-7.9-6.3-12.4V51.8c0.1-3.2,0.5-6.4,2.6-9.3c3.3-4.2,8.1-6.2,12.4-6.2h14.5V10.9L161.2,10.9z M148.5,51.8v48.9h12.7V51.8H148.5L148.5,51.8z"/>
	<polygon fill="#E63229" points="203.4,36.2 203.4,115.1 186.1,115.1 186.1,36.2 203.4,36.2 	"/>
	<path fill="#E63229" d="M237.5,36.8c2.2,0,4.5,0.2,6.3,0.5c3.1,0.6,5.3,1.4,7.6,3.5c3.4,3.4,4.5,7.4,4.6,11.5v62.7h-32.4c-1.7,0-3.4-0.2-4.8-0.5c-2.4-0.6-4.2-1.5-6-4.3c-1.6-2.4-2.5-5.5-2.4-8.4V75.9c0-1.7,0.2-3.4,0.4-4.8c0.5-2.4,1.2-4.2,3-6.1c0.7-0.7,1.6-1.3,2.6-1.8c2.3-1.1,5.6-1.7,8.9-1.7h13.9v-9.2h-26V36.8H237.5L237.5,36.8z M225.4,75.9v25.3h13.9V75.9H225.4L225.4,75.9z"/>
	<path fill="#E63229" d="M194.6,10.5c2.1,0,4.5,0.6,6.7,2.7c3.2,3.7,4.3,8.1,0,13.3c-3.7,3.2-8.1,4.3-13.3,0c-3.2-3.7-4.3-8.1,0-13.3C189.8,11.4,192.3,10.5,194.6,10.5L194.6,10.5z"/>
	<path fill="#E63229" d="M60.4,0c5.1-0.1,12.1,0,18.2,0.5v17.3c-5.8-0.5-11.6-0.5-15.4-0.5c-3.8-0.1-5.5,0-7.1,0c-1.6,0-3.1,0-5.3,0.1c-2.3,0.1-5.3,0.3-8.7,0.9c-3.4,0.5-7.1,1.4-9.9,2.4c-2.9,0.9-4.9,1.9-6.7,3.1c-9.3,6.5-10.9,13.8-6.4,20.9c1.9,3.3,4.8,5.4,7.7,6.6c3.2,1.4,5.9,2.4,8.7,3.6c1.4,0.6,3,1.2,5.1,2c4.3,1.6,11.7,3.9,18.4,6.9c3.4,1.6,6.5,3.4,9.2,5.2c11.8,8.2,13.2,14.8,13.5,22.6c-0.1,5.7-1.5,11.5-7,17.6c-1.5,1.6-3.2,3-5,4.2c-1.8,1.2-3.8,2.2-6,2.9c-2.2,0.8-4.8,1.3-7.8,1.6c-5.8,0.5-15.1,0.1-23.7-1.6c-4.2-0.9-7.8-2.2-11.3-3.6c-3.5-1.4-6.8-2.8-9.3-4.3c-2.5-1.5-4.2-3.1-5.8-4.8l8.1-15c2.8,2,5.9,3.8,9,5.4c3.1,1.5,6.3,2.8,9.8,3.9c3.5,1.1,7.4,2.1,10.7,2.7c3.3,0.6,5.9,0.8,8.1,0.7c2.2,0,3.9-0.3,5.4-0.7c1.5-0.4,2.8-1,3.8-1.7c4.9-3.7,4.4-7.5,2.3-11.9c-0.6-1.1-1.4-2.2-2.5-3.1c-3.4-3.2-10.7-5.2-16.3-7.5c-1.8-0.8-3.6-1.6-6.3-2.8c-2.7-1.1-6.2-2.5-8.6-3.5c-2.4-0.9-3.5-1.4-5.7-2.4c-2.2-1-5.5-2.6-8.2-4.2c-2.7-1.6-4.9-3.4-6.8-5.1c-8.9-8.3-8.9-14.7-8.4-22.7C0.9,29.4,3.1,22.5,8.8,16c3.6-4,8.1-7.2,12.6-9.5c5.1-2.7,11.5-4,18.1-4.9C43,1.2,46.5,1,48.9,0.8c2.4-0.2,3.9-0.3,5.6-0.5C56.1,0.2,57.9,0.1,60.4,0L60.4,0z"/>
</svg>