<?xml version="1.0" encoding="utf-8"?>
<!-- Generator: Adobe Illustrator 18.0.0, SVG Export Plug-In . SVG Version: 6.00 Build 0)  -->
<!DOCTYPE svg PUBLIC "-//W3C//DTD SVG 1.1//EN" "http://www.w3.org/Graphics/SVG/1.1/DTD/svg11.dtd">
<svg version="1.1" id="Layer_1" xmlns="http://www.w3.org/2000/svg" xmlns:xlink="http://www.w3.org/1999/xlink" x="0px" y="0px"
	 viewBox="0 0 333.8 146.3" enable-background="new 0 0 333.8 146.3" xml:space="preserve">
<g id="XMLID_48_">
	<linearGradient id="XMLID_39_" gradientUnits="userSpaceOnUse" x1="7.7027" y1="103.8921" x2="41.1642" y2="70.4306">
		<stop  offset="0" style="stop-color:#7CA6D8"/>
		<stop  offset="0.3351" style="stop-color:#7BA4D5"/>
		<stop  offset="0.4558" style="stop-color:#769DCC"/>
		<stop  offset="0.5418" style="stop-color:#6E92C0"/>
		<stop  offset="0.6114" style="stop-color:#6484B2"/>
		<stop  offset="0.671" style="stop-color:#5773A0"/>
		<stop  offset="0.7238" style="stop-color:#47618E"/>
		<stop  offset="0.7704" style="stop-color:#344D7A"/>
		<stop  offset="0.813" style="stop-color:#1F3867"/>
		<stop  offset="0.8169" style="stop-color:#1D3565"/>
	</linearGradient>
	<path id="XMLID_53_" fill="url(#XMLID_39_)" d="M30.1,73l-3.9-5.2c-4.1,3-7.6,6.8-10.4,11c-5.1,7.7-7.5,16.9-7.1,26.1l4.5-0.2
		c-0.2-3.5,0.2-7.1,0.9-10.6l7.7,1.7c-0.5,2.8-0.9,5.6-0.7,8.4l4.5-0.2c-0.3-5.6,1.2-11.3,4.3-16c1.7-2.6,3.8-4.9,6.3-6.7l-3.9-5.2
		c2.4-1.9,5.1-3.2,7.8-4.4l-1.4-3.7C35.8,69.4,32.8,71,30.1,73z"/>
	<path id="XMLID_52_" fill="#1D3565" d="M28.5,114.7c-1.4-2.8-2.3-5.8-2.6-8.9l-6.5,0.8c-0.4-3-0.3-6,0.1-9l-3.9-0.6
		c-0.5,3.3-0.6,6.7-0.2,10L9,107.9c0.6,5,2.1,10,4.3,14.5c4.2,8.1,10.9,15.1,19.1,19.1l2.1-4c-3.2-1.6-6.1-3.6-8.7-6l5.3-5.8
		c2.1,1.9,4.4,3.6,6.9,4.8l2.1-4C35.2,123.9,31.1,119.7,28.5,114.7z"/>
	<path id="XMLID_51_" fill="#7CA6D8" d="M73.6,135.5c-3,1.8-6.2,3.5-9.6,4.5l-2.4-7.5c2.7-0.8,5.2-2.1,7.7-3.6l-2.5-3.8
		c-4.8,3-10.4,4.6-16,4.2c-3.1-0.2-6.2-0.8-9-2.1l-2.6,6c-2.7-1.3-5.4-2.7-7.7-4.6l-2.5,3.1c2.6,2.2,5.6,3.8,8.6,5.2l-2.6,6
		c4.6,2,9.7,3.1,14.7,3.4c9.2,0.6,18.5-2,26.2-6.9L73.6,135.5z"/>
	<path id="XMLID_49_" fill="#1D3565" d="M91.3,100.7c0.2,3.5-0.2,7.1-0.9,10.6l-7.7-1.7c0.5-2.8,0.9-5.6,0.7-8.4l-4.5,0.2
		c0.3,5.6-1.2,11.3-4.3,16c-1.7,2.6-3.8,4.9-6.3,6.7l3.9,5.2c-2.4,1.9-5.1,3.2-7.8,4.4l1.4,3.7c3.1-1.3,6.1-2.8,8.8-4.9l3.9,5.2
		c4.1-3,7.6-6.8,10.4-11c5.1-7.7,7.5-16.9,7.1-26.1L91.3,100.7z"/>
	<g id="XMLID_55_">
		<radialGradient id="XMLID_40_" cx="78.6639" cy="62.8729" r="71.2075" gradientUnits="userSpaceOnUse">
			<stop  offset="0" style="stop-color:#E9694D"/>
			<stop  offset="1" style="stop-color:#C91A21"/>
		</radialGradient>
		<path id="XMLID_473_" fill="url(#XMLID_40_)" d="M157.3,0C147.1,2.3,90.1,24.7,48.6,76.4C36.3,56.9,7.1,43.1,0,40
			c26.7,25.1,45.3,58.7,51.6,85.7c0,0,0-0.1,0.1-0.1C59,108.2,79.1,50.3,157.3,0z"/>
		<radialGradient id="XMLID_41_" cx="19.284" cy="48.1224" r="46.7313" gradientUnits="userSpaceOnUse">
			<stop  offset="0" style="stop-color:#EA7559"/>
			<stop  offset="0.4049" style="stop-color:#E86248"/>
			<stop  offset="1" style="stop-color:#E4352C"/>
		</radialGradient>
		<path id="XMLID_472_" fill="url(#XMLID_41_)" d="M48.8,92.6l-0.2-16.1C36.3,56.9,7.1,43.1,0,40c0.5,0.4,0.9,0.9,1.4,1.3
			C12.9,48.6,38.7,71.2,48.8,92.6z"/>
		<radialGradient id="XMLID_42_" cx="100.453" cy="36.0781" r="89.7277" gradientUnits="userSpaceOnUse">
			<stop  offset="0" style="stop-color:#E86046"/>
			<stop  offset="0.411" style="stop-color:#E54131"/>
			<stop  offset="1" style="stop-color:#C91A21"/>
		</radialGradient>
		<path id="XMLID_471_" fill="url(#XMLID_42_)" d="M157.3,0c-0.6,0.1-1.3,0.3-2.2,0.6C105.6,23.1,67.9,57.9,48.7,94.2
			c-0.2-0.9,1.6,23.2,2.8,31.5c0,0,0-0.1,0.1-0.1C59,108.2,79.1,50.3,157.3,0z"/>
		<g id="XMLID_468_">
			<linearGradient id="XMLID_43_" gradientUnits="userSpaceOnUse" x1="156.9176" y1="0.1352" x2="157.3278" y2="0.1352">
				<stop  offset="0" style="stop-color:#ED896D"/>
				<stop  offset="1" style="stop-color:#E8644A"/>
			</linearGradient>
			<path id="XMLID_470_" fill="url(#XMLID_43_)" d="M156.9,0.3c0.1-0.1,0.3-0.2,0.4-0.3c0,0,0,0,0,0C157.2,0.1,157.1,0.2,156.9,0.3z
				"/>
			<linearGradient id="XMLID_44_" gradientUnits="userSpaceOnUse" x1="48.7046" y1="51.5996" x2="138.5701" y2="51.5996">
				<stop  offset="0" style="stop-color:#ED896D"/>
				<stop  offset="1" style="stop-color:#E8644A"/>
			</linearGradient>
			<path id="XMLID_469_" fill="url(#XMLID_44_)" d="M138.6,8.9C97.2,31.2,65.7,62,48.7,94.2c0,0,0,0,0,0.1
				C65.8,63.3,97.3,31.8,138.6,8.9z"/>
		</g>
		
			<radialGradient id="XMLID_45_" cx="103.693" cy="62.5092" r="58.3199" gradientTransform="matrix(0.9983 0 0 0.9913 0.5229 0.3614)" gradientUnits="userSpaceOnUse">
			<stop  offset="0" style="stop-color:#E8644A"/>
			<stop  offset="1" style="stop-color:#C71A20"/>
		</radialGradient>
		<path id="XMLID_467_" fill="url(#XMLID_45_)" d="M50.8,120.8c0.3,1.3,0.7,2.6,1,3.9c0,0,0-0.1,0.1-0.1
			C59.2,107.3,79.2,49.8,157.3,0C85.8,45.4,61,96.8,50.8,120.8z"/>
		<radialGradient id="XMLID_46_" cx="45.5627" cy="48.1207" r="19.7622" gradientUnits="userSpaceOnUse">
			<stop  offset="0" style="stop-color:#F27144"/>
			<stop  offset="0.4049" style="stop-color:#EE4B2D"/>
			<stop  offset="1" style="stop-color:#E21F26"/>
		</radialGradient>
		<path id="XMLID_358_" fill="url(#XMLID_46_)" d="M60.8,46.6c0,6.8-5.5,12.3-12.3,12.3c-6.8,0-12.3-5.5-12.3-12.3
			c0-6.8,5.5-12.3,12.3-12.3C55.3,34.3,60.8,39.8,60.8,46.6z"/>
		<linearGradient id="XMLID_47_" gradientUnits="userSpaceOnUse" x1="50.2925" y1="48.6275" x2="59.875" y2="59.3052">
			<stop  offset="0" style="stop-color:#E21F26"/>
			<stop  offset="1" style="stop-color:#9E0F13"/>
		</linearGradient>
		<path id="XMLID_340_" fill="url(#XMLID_47_)" d="M53.6,35.4c3.1,2.2,5.1,5.7,5.1,9.8c0,6.6-5.4,12-12,12c-3.1,0-5.9-1.2-8-3.1
			c2.3,3,5.8,4.9,9.8,4.9c6.8,0,12.3-5.5,12.3-12.3C60.8,41.6,57.9,37.3,53.6,35.4z"/>
		
			<linearGradient id="XMLID_54_" gradientUnits="userSpaceOnUse" x1="58.9986" y1="134.5958" x2="58.4198" y2="146.149" gradientTransform="matrix(0.8809 0.4733 -0.4733 0.8809 58.5851 -107.587)">
			<stop  offset="0" style="stop-color:#EF9670"/>
			<stop  offset="1" style="stop-color:#F2B28D"/>
		</linearGradient>
		<path id="XMLID_339_" fill="url(#XMLID_54_)" d="M48.1,45.5c-1.5,2.8-4.5,4.1-6.7,2.9c-2.2-1.2-2.8-4.4-1.3-7.2
			c1.5-2.8,4.5-4.1,6.7-2.9C49.1,39.5,49.6,42.7,48.1,45.5z"/>
	</g>
	<path id="XMLID_50_" fill="#7CA6D8" d="M72.1,63.9l-2.1,4c3.2,1.6,6.1,3.6,8.7,6l-5.3,5.8c-2.1-1.9-4.4-3.6-6.9-4.8l-2.1,4
		c5,2.5,9.1,6.7,11.7,11.7c1.4,2.8,2.3,5.8,2.6,8.9l6.5-0.8c0.4,3,0.3,6-0.1,9l3.9,0.6c0.5-3.3,0.6-6.7,0.2-10l6.5-0.8
		c-0.6-5-2.1-10-4.3-14.5C87.1,74.9,80.3,68,72.1,63.9z"/>
</g>
<g>
	<path fill="#1D3565" d="M117.6,79.7c-0.9,0.4-2.6,0.9-4.8,0.9c-5.1,0-8.9-3.2-8.9-9.1c0-5.6,3.8-9.5,9.4-9.5c2.2,0,3.7,0.5,4.3,0.8
		l-0.6,1.9c-0.9-0.4-2.1-0.7-3.6-0.7c-4.2,0-7,2.7-7,7.4c0,4.4,2.5,7.2,6.9,7.2c1.4,0,2.9-0.3,3.8-0.7L117.6,79.7z"/>
	<path fill="#1D3565" d="M131.8,73.7c0,4.8-3.3,6.9-6.4,6.9c-3.5,0-6.2-2.6-6.2-6.6c0-4.3,2.8-6.9,6.4-6.9
		C129.3,67,131.8,69.7,131.8,73.7z M121.6,73.8c0,2.8,1.6,5,3.9,5c2.2,0,3.9-2.1,3.9-5c0-2.2-1.1-5-3.9-5
		C122.8,68.8,121.6,71.4,121.6,73.8z"/>
	<path fill="#1D3565" d="M134.8,70.8c0-1.3,0-2.4-0.1-3.5h2.1l0.1,2.1h0.1c0.7-1.2,1.9-2.4,4.1-2.4c1.8,0,3.1,1.1,3.7,2.6h0.1
		c0.4-0.7,0.9-1.3,1.4-1.7c0.8-0.6,1.6-0.9,2.9-0.9c1.7,0,4.2,1.1,4.2,5.6v7.6H151v-7.3c0-2.5-0.9-4-2.8-4c-1.3,0-2.4,1-2.8,2.1
		c-0.1,0.3-0.2,0.7-0.2,1.2v8h-2.3v-7.7c0-2.1-0.9-3.6-2.7-3.6c-1.5,0-2.5,1.2-2.9,2.4c-0.1,0.3-0.2,0.7-0.2,1.1v7.8h-2.3V70.8z"/>
	<path fill="#1D3565" d="M167.9,76.7c0,1.3,0,2.5,0.1,3.5h-2.1l-0.1-2.1h-0.1c-0.6,1-2,2.4-4.3,2.4c-2,0-4.5-1.1-4.5-5.7v-7.6h2.4
		v7.2c0,2.5,0.7,4.1,2.9,4.1c1.6,0,2.7-1.1,3.1-2.1c0.1-0.3,0.2-0.8,0.2-1.2v-7.9h2.4V76.7z"/>
	<path fill="#1D3565" d="M171.8,70.8c0-1.3,0-2.4-0.1-3.5h2.1l0.1,2.1h0.1c0.6-1.2,2.1-2.4,4.3-2.4c1.8,0,4.6,1.1,4.6,5.5v7.7h-2.3
		v-7.5c0-2.1-0.8-3.8-3-3.8c-1.5,0-2.8,1.1-3.2,2.4c-0.1,0.3-0.2,0.7-0.2,1.1v7.8h-2.4V70.8z"/>
	<path fill="#1D3565" d="M189.2,63.7c0,0.8-0.6,1.4-1.5,1.4c-0.8,0-1.4-0.6-1.4-1.4c0-0.8,0.6-1.5,1.5-1.5
		C188.7,62.2,189.2,62.9,189.2,63.7z M186.6,80.2V67.3h2.4v12.9H186.6z"/>
	<path fill="#1D3565" d="M204,61.3v15.6c0,1.1,0,2.5,0.1,3.3H202l-0.1-2.2h-0.1c-0.7,1.4-2.3,2.5-4.4,2.5c-3.1,0-5.5-2.6-5.5-6.6
		c0-4.3,2.6-6.9,5.8-6.9c2,0,3.3,0.9,3.9,2h0.1v-7.7H204z M201.7,72.6c0-0.3,0-0.7-0.1-1c-0.3-1.5-1.6-2.7-3.4-2.7
		c-2.4,0-3.9,2.1-3.9,5c0,2.6,1.3,4.8,3.8,4.8c1.6,0,3-1,3.4-2.8c0.1-0.3,0.1-0.6,0.1-1V72.6z"/>
	<path fill="#1D3565" d="M215.1,80.2l-0.2-1.6h-0.1c-0.7,1-2.1,1.9-4,1.9c-2.6,0-4-1.8-4-3.7c0-3.1,2.8-4.8,7.8-4.8v-0.3
		c0-1.1-0.3-3-2.9-3c-1.2,0-2.5,0.4-3.4,1l-0.5-1.5c1.1-0.7,2.6-1.1,4.2-1.1c4,0,4.9,2.7,4.9,5.3v4.8c0,1.1,0.1,2.2,0.2,3.1H215.1z
		 M214.7,73.6c-2.6-0.1-5.5,0.4-5.5,2.9c0,1.5,1,2.2,2.2,2.2c1.7,0,2.8-1.1,3.1-2.2c0.1-0.2,0.1-0.5,0.1-0.7V73.6z"/>
	<path fill="#1D3565" d="M231.9,61.3v15.6c0,1.1,0,2.5,0.1,3.3h-2.1l-0.1-2.2h-0.1c-0.7,1.4-2.3,2.5-4.4,2.5c-3.1,0-5.5-2.6-5.5-6.6
		c0-4.3,2.6-6.9,5.8-6.9c2,0,3.3,0.9,3.9,2h0.1v-7.7H231.9z M229.6,72.6c0-0.3,0-0.7-0.1-1c-0.3-1.5-1.6-2.7-3.4-2.7
		c-2.4,0-3.9,2.1-3.9,5c0,2.6,1.3,4.8,3.8,4.8c1.6,0,3-1,3.4-2.8c0.1-0.3,0.1-0.6,0.1-1V72.6z"/>
</g>
<g id="XMLID_15_">
	<polygon id="XMLID_16_" fill="#002453" points="132.1,118.2 123.3,89.4 111.3,89.4 126.4,136.6 137.3,136.6 152.4,89.4 140.6,89.4 
			"/>
	<rect id="XMLID_17_" x="152.5" y="89.4" fill="#002453" width="11.1" height="47.2"/>
	<polygon id="XMLID_60_" fill="#002453" points="179.4,117.2 199.1,117.2 199.1,106.6 179.4,106.6 179.4,100 200.6,100 200.6,89.4 
		168.2,89.4 168.2,136.6 201.4,136.6 201.4,126 179.4,126 	"/>
	<polygon id="XMLID_61_" fill="#002453" points="217.7,100 229.4,100 229.4,136.6 240.6,136.6 240.6,100 252.2,100 252.2,89.4 
		217.7,89.4 	"/>
	<path id="XMLID_62_" fill="#002453" d="M277.7,115.4c0,3.4-0.1,5.8-0.3,7.2c-0.2,1.1-0.7,2.1-1.6,2.9c-0.8,0.8-2.2,1.1-4.1,1.1
		c-1.8,0-3.3-0.4-4.2-1.3c-1-0.9-1.6-2-1.9-3.4c-0.1-0.7-0.3-2.5-0.3-7.1V89.4h-11.2v25.1c0,5,0.3,8.9,0.8,11.5
		c0.4,1.9,1.2,3.8,2.5,5.5c1.3,1.8,3,3.2,5.2,4.3c2.2,1.1,5.2,1.6,9.3,1.6c3.3,0,6.1-0.5,8.3-1.5c2.2-1,3.9-2.4,5.3-4.1
		c1.3-1.7,2.2-3.8,2.7-6.2c0.5-2.3,0.7-6.1,0.7-11.5V89.4h-11.2V115.4z"/>
	<path id="XMLID_65_" fill="#002453" d="M327.7,125.7c-2-3.5-3.5-6-4.7-7.4c-0.6-0.7-1.2-1.3-1.9-2c2.3-0.8,4.1-2.1,5.5-3.8
		c2-2.4,3-5.5,3-9.2c0-2.9-0.7-5.5-1.9-7.7c-1.3-2.3-3.1-4-5.3-4.9c-2.1-0.9-5.3-1.3-9.8-1.3h-18.3v47.2h11.2v-18.4h0
		c2.1,0,3,0.2,3.4,0.4c0.6,0.2,1.2,0.7,1.8,1.4c0.7,0.8,2,2.9,4,6.3l6.2,10.3h13.1L327.7,125.7z M305.3,100h4.6
		c4.1,0,5.2,0.1,5.5,0.1c0.9,0.2,1.5,0.5,2,1.1c0.5,0.6,0.7,1.5,0.7,2.6c0,1-0.2,1.9-0.6,2.5c-0.4,0.6-0.8,1-1.4,1.2
		c-0.3,0.1-1.7,0.4-6.6,0.4h-4.3V100z"/>
</g>
<path id="XMLID_19_" fill="none" d="M315.5,100.2c-0.3,0-1.4-0.1-5.5-0.1h-4.6v8h4.3c4.9,0,6.2-0.3,6.6-0.4c0.6-0.2,1.1-0.6,1.4-1.2
	c0.4-0.6,0.6-1.5,0.6-2.5c0-1.1-0.2-2-0.7-2.6C317,100.7,316.3,100.3,315.5,100.2z"/>
<g id="XMLID_14_">
	<linearGradient id="XMLID_56_" gradientUnits="userSpaceOnUse" x1="184.8212" y1="112.028" x2="184.8212" y2="136.6037">
		<stop  offset="0" style="stop-color:#FFFFFF"/>
		<stop  offset="0.1389" style="stop-color:#FFFFFF;stop-opacity:0.8958"/>
		<stop  offset="1" style="stop-color:#FFFFFF;stop-opacity:0.25"/>
	</linearGradient>
	<path id="XMLID_18_" opacity="0.5" fill="url(#XMLID_56_)" d="M179.4,117.2h19.7V112c-10.7,0.8-21.1,1.8-30.9,3v21.6h33.2V126h-22
		V117.2z"/>
	<linearGradient id="XMLID_57_" gradientUnits="userSpaceOnUse" x1="158.1029" y1="115.5885" x2="158.1029" y2="136.6037">
		<stop  offset="0" style="stop-color:#FFFFFF"/>
		<stop  offset="0.1389" style="stop-color:#FFFFFF;stop-opacity:0.8958"/>
		<stop  offset="1" style="stop-color:#FFFFFF;stop-opacity:0.25"/>
	</linearGradient>
	<path id="XMLID_26_" opacity="0.5" fill="url(#XMLID_57_)" d="M152.5,136.6h11.1v-21c-3.8,0.5-7.6,1.1-11.1,1.6V136.6z"/>
	<linearGradient id="XMLID_58_" gradientUnits="userSpaceOnUse" x1="132.7376" y1="118.9157" x2="132.7376" y2="136.6037">
		<stop  offset="0" style="stop-color:#FFFFFF"/>
		<stop  offset="0.1389" style="stop-color:#FFFFFF;stop-opacity:0.8958"/>
		<stop  offset="1" style="stop-color:#FFFFFF;stop-opacity:0.25"/>
	</linearGradient>
	<path id="XMLID_27_" opacity="0.5" fill="url(#XMLID_58_)" d="M126.4,136.6h10.9l5.7-17.7c-8,1.6-15,3.4-20.5,5.4L126.4,136.6z"/>
	<linearGradient id="XMLID_59_" gradientUnits="userSpaceOnUse" x1="234.9776" y1="109.9615" x2="234.9776" y2="136.6037">
		<stop  offset="0" style="stop-color:#FFFFFF"/>
		<stop  offset="0.1389" style="stop-color:#FFFFFF;stop-opacity:0.8958"/>
		<stop  offset="1" style="stop-color:#FFFFFF;stop-opacity:0.25"/>
	</linearGradient>
	<path id="XMLID_28_" opacity="0.5" fill="url(#XMLID_59_)" d="M229.4,136.6h11.1V110c-3.7,0.1-7.4,0.2-11.1,0.4V136.6z"/>
	<linearGradient id="XMLID_66_" gradientUnits="userSpaceOnUse" x1="271.4795" y1="109.6246" x2="271.4795" y2="137.3817">
		<stop  offset="0" style="stop-color:#FFFFFF"/>
		<stop  offset="0.1389" style="stop-color:#FFFFFF;stop-opacity:0.8958"/>
		<stop  offset="1" style="stop-color:#FFFFFF;stop-opacity:0.25"/>
	</linearGradient>
	<path id="XMLID_29_" opacity="0.5" fill="url(#XMLID_66_)" d="M277.7,115.4c0,3.4-0.1,5.8-0.3,7.2c-0.2,1.1-0.7,2.1-1.6,2.9
		c-0.8,0.8-2.2,1.1-4.1,1.1c-1.8,0-3.3-0.4-4.2-1.3c-1-0.9-1.6-2-1.9-3.4c-0.1-0.7-0.3-2.5-0.3-7.1v-5.3c-0.2,0-0.5,0-0.7,0
		c-3.4,0-6.9,0-10.5,0.1v4.8c0,5,0.3,8.9,0.8,11.5c0.4,1.9,1.2,3.8,2.5,5.5c1.3,1.8,3,3.2,5.2,4.3c2.2,1.1,5.2,1.6,9.3,1.6
		c3.3,0,6.1-0.5,8.3-1.5c2.2-1,3.9-2.4,5.3-4.1c1.3-1.7,2.2-3.8,2.7-6.2c0.5-2.3,0.7-6.1,0.7-11.5v-4.3c-3.7-0.1-7.4-0.1-11.2-0.2
		V115.4z"/>
	<linearGradient id="XMLID_67_" gradientUnits="userSpaceOnUse" x1="314.0149" y1="109.988" x2="314.0149" y2="136.6037">
		<stop  offset="0" style="stop-color:#FFFFFF"/>
		<stop  offset="0.1389" style="stop-color:#FFFFFF;stop-opacity:0.8958"/>
		<stop  offset="1" style="stop-color:#FFFFFF;stop-opacity:0.25"/>
	</linearGradient>
	<path id="XMLID_30_" opacity="0.5" fill="url(#XMLID_67_)" d="M327.7,125.7c-2-3.5-3.5-6-4.7-7.4c-0.6-0.7-1.2-1.3-1.9-2
		c2.3-0.8,4.1-2.1,5.5-3.8c0.2-0.3,0.4-0.5,0.6-0.8c-10.2-0.9-21.3-1.4-33-1.7v26.6h11.2v-18.4h0c2.1,0,3,0.2,3.4,0.4
		c0.6,0.2,1.2,0.7,1.8,1.4c0.7,0.8,2,2.9,4,6.3l6.2,10.3h13.1L327.7,125.7z"/>
</g>
<g id="XMLID_20_">
	<path id="XMLID_22_" fill="#002453" d="M168.2,120.4v2c3.7-0.4,7.4-0.7,11.2-1v-2C175.7,119.7,172,120,168.2,120.4z"/>
	<path id="XMLID_24_" fill="#002453" d="M186.9,126h-3.5c-3.5,2.5-6.7,5-9.7,7.6c-1.8,0.2-3.7,0.4-5.5,0.5v2c1-0.1,2-0.2,3-0.3
		c-0.3,0.2-0.5,0.5-0.8,0.7h2.9c0.4-0.3,0.7-0.7,1.1-1c8.9-0.8,17.9-1.4,26.8-1.8v-2c-8.1,0.4-16.2,0.9-24.3,1.6
		C180.2,130.8,183.4,128.4,186.9,126z"/>
	<path id="XMLID_25_" fill="#002453" d="M196.3,117.2l2.8-1.9V113c-0.3,0.2-5.3,4-5.6,4.2H196.3z"/>
	<path id="XMLID_31_" fill="#002453" d="M168.2,115c0.1,0,0.1,0,0.2-0.1C168.4,115,168.3,115,168.2,115L168.2,115z"/>
</g>
<g id="XMLID_23_">
	<path id="XMLID_32_" fill="#002453" d="M163.7,134.6c-3.7,0.4-7.4,0.8-11.1,1.2v0.8h11.1V134.6z"/>
	<path id="XMLID_34_" fill="#002453" d="M152.5,121.7c3.6-1.9,7.3-3.6,11.1-5v-1c-1.5,0.2-2.9,0.4-4.3,0.6c-2.3,1-4.6,2.1-6.8,3.2
		V121.7z"/>
	<path id="XMLID_36_" fill="#002453" d="M152.5,122v2c3.7-0.4,7.4-0.8,11.1-1.2v-2C160,121.2,156.2,121.6,152.5,122z"/>
</g>
<g id="XMLID_33_">
	<path id="XMLID_37_" fill="#002453" d="M139.6,129.7l1-3.1c-4.6,3.1-8.9,6.5-12.8,10h3C133.5,134.2,136.5,131.9,139.6,129.7z"/>
	<path id="XMLID_38_" fill="#002453" d="M123.7,128c5.7-0.9,11.5-1.7,17.2-2.5l0.7-2.1c-6.2,0.8-12.3,1.7-18.5,2.7L123.7,128z"/>
</g>
<g id="XMLID_3_">
	<path id="XMLID_8_" fill="#002453" d="M254.1,110.4v1.4c1.3-0.5,2.5-0.9,3.5-1.3l2.8-0.9c-1,0-2.8,0-3.8,0
		C256.6,109.6,254.1,110.4,254.1,110.4z"/>
	<path id="XMLID_10_" fill="#002453" d="M270.2,126.5c-0.9-0.1-1.6-0.4-2.2-0.8c-2.2,1.8-4.2,3.6-6.1,5.4c-1.6-0.1-3.1-0.1-4.7-0.1
		c0.1,0.1,0.2,0.3,0.3,0.4c0.4,0.6,0.9,1.1,1.4,1.6c0.3,0,0.7,0,1,0c-0.2,0.2-0.3,0.3-0.5,0.5c0.5,0.4,1,0.9,1.6,1.2
		c0.5-0.5,1.1-1.1,1.6-1.6c6.8,0.2,13.7,0.6,20.5,1c0.7-0.6,1.4-1.2,2-1.9c-6.8-0.4-13.6-0.8-20.4-1
		C266.4,129.7,268.3,128.1,270.2,126.5z"/>
	<path id="XMLID_11_" fill="#002453" d="M254.2,119.2c3.7,0.1,7.4,0.2,11.1,0.3c0-0.6,0-1.2-0.1-2c-3.7-0.1-7.4-0.2-11.1-0.3
		C254.2,117.9,254.2,118.5,254.2,119.2z"/>
	<path id="XMLID_12_" fill="#002453" d="M277.5,121.1c0.5-0.3,0.9-0.6,1.3-0.9c3.3,0.2,6.5,0.4,9.8,0.6c0-0.6,0.1-1.3,0.1-2
		c-2.3-0.2-4.7-0.3-7-0.5c2.1-1.3,4.4-2.6,6.7-3.9c0.1-0.1,0.3-0.1,0.4-0.2c0,0,0,0,0-0.1V112c-0.5,0.2-0.9,0.5-1.4,0.7
		c-3.2,1.7-6.3,3.5-9.2,5.4c-0.2,0-0.4,0-0.7,0C277.6,119.2,277.6,120.2,277.5,121.1z"/>
</g>
<g id="XMLID_9_">
	<path id="XMLID_13_" fill="#002453" d="M229.4,130.8v2c3.7,0,7.4-0.1,11.1,0v-2C236.8,130.8,233.1,130.8,229.4,130.8z"/>
	<path id="XMLID_21_" fill="#002453" d="M229.4,125.5c3-2.3,6.1-4.4,9.5-6.5c0.6,0,1.1,0,1.7,0v-3.3c-0.8,0.4-1.5,0.9-2.2,1.3
		c-3,0-5.9,0-8.9,0.1v2c1.9,0,3.8,0,5.7,0c-2,1.3-3.9,2.6-5.7,4V125.5z"/>
</g>
<g id="XMLID_1_">
	<path id="XMLID_2_" fill="#002453" d="M305.3,136.6v-2.7c-3.7-0.3-7.4-0.6-11.2-0.9v2c3.1,0.2,6.2,0.5,9.3,0.8
		c-0.3,0.3-0.6,0.6-0.9,0.9H305.3z"/>
	<path id="XMLID_4_" fill="#002453" d="M305.3,122.1v-2c-3.7-0.3-7.4-0.7-11.2-0.9v2C297.9,121.4,301.6,121.8,305.3,122.1z"/>
	<path id="XMLID_5_" fill="#002453" d="M294.2,111.6c1.1-0.5,2.3-1,3.4-1.5c-1.1,0-2.3-0.1-3.4-0.1V111.6z"/>
	<path id="XMLID_6_" fill="#002453" d="M320,135.4l0.7,1.2h9.4C326.8,136.2,323.4,135.8,320,135.4z"/>
	<path id="XMLID_7_" fill="#002453" d="M315.6,128.2c2-1.5,4.1-3,6.3-4.4c1.7,0.2,3.4,0.4,5,0.6c-0.5-0.8-0.9-1.5-1.3-2.2
		c-0.3,0-0.7-0.1-1-0.1c0.2-0.1,0.5-0.3,0.7-0.4c-0.4-0.6-0.7-1.2-1.1-1.7c-1,0.6-1.9,1.1-2.8,1.7c-3.5-0.4-7-0.8-10.5-1.1
		c0.4,0.5,0.8,1.2,1.4,2.2c2.2,0.2,4.3,0.4,6.5,0.7c-1.5,1-2.9,2-4.3,3L315.6,128.2z"/>
</g>
</svg>
