<svg preserveAspectRatio="none" width="100%" height="100%" overflow="visible" style="display: block;" viewBox="0 0 128.103 32.0001" fill="none" xmlns="http://www.w3.org/2000/svg">
<g id="Group 1">
<path id="Vector" d="M5.75227 31.4361C5.60776 31.5744 5.43969 31.6843 5.24805 31.766C5.05327 31.8493 4.8475 31.8901 4.63073 31.8901C4.41396 31.8901 4.21919 31.8493 4.02441 31.766C3.92702 31.7267 3.83592 31.6796 3.75424 31.6231C3.67099 31.5681 3.59402 31.5037 3.52176 31.4314C3.4495 31.3592 3.3851 31.2806 3.32855 31.199C3.27201 31.1157 3.22488 31.0277 3.18561 30.9335C3.10236 30.7387 3.06152 30.5329 3.06152 30.3162C3.06152 30.0994 3.10393 29.8999 3.18561 29.7051C3.26415 29.5166 3.37725 29.3517 3.52176 29.2072C3.66156 29.0658 3.82963 28.9527 4.02598 28.8648C4.20976 28.7862 4.4124 28.7454 4.6323 28.7454C4.85221 28.7454 5.06427 28.7847 5.25433 28.8648C5.44597 28.9512 5.6109 29.0674 5.75227 29.2119L5.46482 29.4994C5.34858 29.3894 5.22449 29.3077 5.09097 29.2496C4.94646 29.1868 4.79252 29.1569 4.63073 29.1569C4.46894 29.1569 4.326 29.1868 4.18149 29.2496C4.05111 29.3077 3.92859 29.3894 3.81393 29.4994C3.71654 29.5968 3.63329 29.7193 3.56417 29.8669C3.50291 30.0114 3.47307 30.1607 3.47307 30.3162C3.47307 30.4717 3.50291 30.6272 3.56417 30.7717C3.63015 30.9084 3.71183 31.0309 3.81393 31.1393C3.91446 31.2367 4.03855 31.3199 4.18149 31.389C4.326 31.4503 4.47522 31.4801 4.63073 31.4801C4.78624 31.4801 4.94018 31.4503 5.08469 31.389C5.23234 31.3215 5.35486 31.2367 5.45225 31.1393L5.7507 31.4361H5.75227Z" fill="var(--fill-0, white)"/>
<path id="Vector_2" d="M14.8737 30.3272C14.8737 30.1104 14.9161 29.9062 15.0041 29.7146C15.0842 29.5229 15.1973 29.3533 15.3449 29.2056C15.4847 29.0643 15.6512 28.9527 15.8429 28.8695C16.0376 28.7862 16.2418 28.7454 16.4555 28.7454C16.6691 28.7454 16.8717 28.7862 17.0665 28.8695C17.2581 28.9496 17.4262 29.0611 17.5707 29.2056C17.7184 29.3533 17.833 29.5229 17.9116 29.7146C17.9917 29.8983 18.031 30.1025 18.031 30.3272C18.031 30.5518 17.9917 30.7591 17.9116 30.9445C17.8283 31.1361 17.7152 31.3042 17.5707 31.4487C17.4262 31.5916 17.2581 31.7047 17.0665 31.7833C16.8717 31.8665 16.6675 31.9074 16.4555 31.9074C16.2434 31.9074 16.0376 31.8665 15.8429 31.7833C15.6512 31.7047 15.4863 31.5916 15.3449 31.4487C15.1973 31.3042 15.0826 31.1361 15.0041 30.9445C14.9177 30.756 14.8737 30.5502 14.8737 30.3272ZM15.2962 30.3287C15.2962 30.4842 15.3261 30.6335 15.3873 30.778C15.4455 30.9194 15.5287 31.045 15.6371 31.1534C15.7455 31.2618 15.868 31.345 16.0047 31.4032C16.1382 31.466 16.2874 31.4958 16.4539 31.4958C16.6204 31.4958 16.7759 31.466 16.9079 31.4032C17.0555 31.3419 17.178 31.2586 17.2754 31.1534C17.3807 31.0529 17.4623 30.9272 17.5252 30.778C17.5864 30.6445 17.6163 30.4952 17.6163 30.3287C17.6163 30.1622 17.5864 30.013 17.5252 29.8779C17.4671 29.7397 17.3838 29.6172 17.2754 29.5072C17.167 29.3988 17.0445 29.3156 16.9079 29.2575C16.7633 29.1962 16.611 29.1664 16.4539 29.1664C16.2968 29.1664 16.1492 29.1962 16.0047 29.2575C15.9324 29.2873 15.8664 29.3234 15.8067 29.3658C15.747 29.4098 15.6905 29.457 15.6355 29.5072C15.5853 29.5622 15.5381 29.6187 15.4957 29.6784C15.4517 29.7381 15.4156 29.8041 15.3873 29.8764C15.3261 30.0209 15.2962 30.1717 15.2962 30.3272V30.3287Z" fill="var(--fill-0, white)"/>
<path id="Vector_3" d="M28.1847 31.5178C28.1847 31.6372 28.1423 31.7393 28.0607 31.8209C27.9774 31.9042 27.8769 31.945 27.7575 31.945C27.6381 31.945 27.5423 31.9042 27.459 31.8209C27.3758 31.7393 27.335 31.6372 27.335 31.5178C27.335 31.3984 27.3758 31.3026 27.459 31.2178C27.5423 31.1329 27.6413 31.0905 27.7575 31.0905C27.8737 31.0905 27.9774 31.1345 28.0607 31.2178C28.1439 31.3026 28.1847 31.4015 28.1847 31.5178Z" fill="var(--fill-0, white)"/>
<path id="Vector_4" d="M40.3331 30.7717L39.6184 32L37.7445 28.8428H38.2314L39.6168 31.1769L40.0928 30.3586L39.1833 28.8428H39.6702L40.33 29.9407L40.974 28.8428H41.4609L40.5671 30.3586L41.0541 31.1769L42.4128 28.8428H42.8998L41.0541 32L40.3284 30.7717H40.3331Z" fill="var(--fill-0, white)"/>
<path id="Vector_5" d="M52.1012 30.3272C52.1012 30.1104 52.1452 29.9062 52.2316 29.7146C52.3117 29.5229 52.4248 29.3533 52.5725 29.2056C52.7201 29.058 52.8788 28.9527 53.0704 28.8695C53.2652 28.7862 53.4694 28.7454 53.6814 28.7454C53.8935 28.7454 54.0993 28.7862 54.294 28.8695C54.4857 28.9496 54.6537 29.0611 54.7983 29.2056C54.9428 29.3501 55.059 29.5229 55.1391 29.7146C55.2192 29.8983 55.2585 30.1025 55.2585 30.3272C55.2585 30.5518 55.2192 30.7591 55.1391 30.9445C55.0559 31.1361 54.9428 31.3042 54.7983 31.4487C54.6537 31.5916 54.4857 31.7047 54.294 31.7833C54.0993 31.8665 53.8951 31.9074 53.6814 31.9074C53.4678 31.9074 53.2652 31.8665 53.0704 31.7833C52.8788 31.7047 52.7138 31.5916 52.5725 31.4487C52.4248 31.3042 52.3117 31.1361 52.2316 30.9445C52.1452 30.756 52.1012 30.5502 52.1012 30.3272ZM52.5238 30.3287C52.5238 30.4842 52.5536 30.6335 52.6164 30.778C52.6746 30.9194 52.7562 31.045 52.8662 31.1534C52.9746 31.2618 53.0971 31.345 53.2338 31.4032C53.3673 31.466 53.5181 31.4958 53.683 31.4958C53.8479 31.4958 54.005 31.466 54.137 31.4032C54.2846 31.3419 54.4071 31.2586 54.5045 31.1534C54.6098 31.0529 54.693 30.9272 54.7543 30.778C54.8155 30.6445 54.8469 30.4952 54.8469 30.3287C54.8469 30.1622 54.8155 30.013 54.7543 29.8779C54.6962 29.7397 54.6129 29.6172 54.5045 29.5072C54.3961 29.3988 54.2736 29.3156 54.137 29.2575C53.9924 29.1962 53.8416 29.1664 53.683 29.1664C53.5243 29.1664 53.3783 29.1962 53.2338 29.2575C53.1615 29.2873 53.0955 29.3234 53.0358 29.3658C52.9761 29.4098 52.9196 29.457 52.8662 29.5072C52.8159 29.5622 52.7688 29.6187 52.7248 29.6784C52.6808 29.7381 52.6463 29.8041 52.6164 29.8764C52.5552 30.0209 52.5238 30.1717 52.5238 30.3272V30.3287Z" fill="var(--fill-0, white)"/>
<path id="Vector_6" d="M67.3189 31.81L66.4848 30.9225H64.9737V31.81H64.5622V28.8428H66.6089C66.6262 28.8428 66.6513 28.8443 66.6843 28.849C66.7644 28.8569 66.8492 28.8742 66.9435 28.9025C67.0408 28.9307 67.1508 28.9747 67.2733 29.0313C67.3849 29.0847 67.4917 29.1695 67.5922 29.281C67.7336 29.4444 67.8027 29.6501 67.8027 29.8983C67.8027 30.1465 67.732 30.3444 67.5922 30.4984C67.5309 30.5706 67.4603 30.6319 67.3817 30.6821C67.3456 30.7026 67.3079 30.7246 67.2702 30.745C67.2325 30.7654 67.1932 30.7811 67.1539 30.7968C67.1257 30.811 67.0974 30.822 67.0723 30.8314C67.0471 30.8392 67.022 30.8471 66.9969 30.8549L67.9063 31.8084H67.3173L67.3189 31.81ZM66.6529 30.4952C66.667 30.4874 66.6811 30.4827 66.6937 30.4827C66.7063 30.4827 66.722 30.4827 66.7408 30.4779C66.7597 30.4748 66.7785 30.4717 66.7974 30.4701C66.8162 30.4685 66.8382 30.4622 66.8602 30.456C66.8995 30.4497 66.9387 30.4402 66.9764 30.4261C67.0141 30.4135 67.0534 30.3963 67.0927 30.3743C67.1681 30.335 67.2309 30.2879 67.2812 30.2329C67.311 30.1936 67.3377 30.1465 67.3629 30.0931C67.3848 30.046 67.3958 29.98 67.3958 29.8983C67.3958 29.7648 67.366 29.6564 67.3032 29.5732C67.2309 29.4915 67.1477 29.4255 67.0534 29.3784C67 29.3501 66.9482 29.3281 66.8995 29.314C66.8508 29.2999 66.8005 29.2889 66.7503 29.281C66.656 29.27 66.5963 29.2653 66.5712 29.2653H64.9737V30.4952H66.6529Z" fill="var(--fill-0, white)"/>
<path id="Vector_7" d="M79.1268 31.81L78.0602 30.3476L77.3565 30.9272V31.81H76.945V28.8428H77.3565V30.3853L79.2682 28.8428H79.9185L78.3854 30.0947L79.642 31.81H79.1268Z" fill="var(--fill-0, white)"/>
<path id="Vector_8" d="M89.7419 31.81H89.1136V28.8428H91.5719V29.2653H89.5251V30.1214H91.5719V30.5486H89.5251V31.3984H91.5719V31.81H89.7419Z" fill="var(--fill-0, white)"/>
<path id="Vector_9" d="M103.676 31.81L102.842 30.9225H101.331V31.81H100.92V28.8428H102.966C102.984 28.8428 103.009 28.8443 103.042 28.849C103.12 28.8569 103.207 28.8742 103.301 28.9025C103.398 28.9307 103.508 28.9747 103.631 29.0313C103.742 29.0847 103.849 29.1695 103.95 29.281C104.091 29.4444 104.16 29.6501 104.16 29.8983C104.16 30.1465 104.089 30.3444 103.95 30.4984C103.888 30.5706 103.818 30.6319 103.739 30.6821C103.703 30.7026 103.665 30.7246 103.628 30.745C103.59 30.7654 103.551 30.7811 103.511 30.7968C103.483 30.811 103.455 30.822 103.43 30.8314C103.405 30.8392 103.379 30.8471 103.354 30.8549L104.264 31.8084H103.673L103.676 31.81ZM103.01 30.4952C103.024 30.4874 103.039 30.4827 103.051 30.4827C103.064 30.4827 103.079 30.4827 103.098 30.4779C103.117 30.4748 103.136 30.4717 103.155 30.4701C103.174 30.4685 103.196 30.4622 103.218 30.456C103.257 30.4497 103.296 30.4402 103.334 30.4261C103.372 30.4135 103.411 30.3963 103.45 30.3743C103.525 30.335 103.588 30.2879 103.639 30.2329C103.668 30.1936 103.695 30.1465 103.72 30.0931C103.742 30.046 103.753 29.98 103.753 29.8983C103.753 29.7648 103.723 29.6564 103.661 29.5732C103.588 29.4915 103.505 29.4255 103.411 29.3784C103.357 29.3501 103.306 29.3281 103.257 29.314C103.208 29.2999 103.158 29.2889 103.108 29.281C103.013 29.27 102.954 29.2653 102.929 29.2653H101.331V30.4952H103.01Z" fill="var(--fill-0, white)"/>
<path id="Vector_10" d="M114.845 31.8964H114.804C114.78 31.8964 114.749 31.8932 114.71 31.8901C114.666 31.8901 114.617 31.8869 114.564 31.8791C114.51 31.8728 114.451 31.8634 114.385 31.8524C114.323 31.8382 114.26 31.8225 114.196 31.8068C114.13 31.7911 114.063 31.7691 113.99 31.744C113.857 31.7047 113.725 31.6356 113.596 31.5382C113.513 31.4801 113.442 31.4031 113.384 31.3057C113.331 31.2083 113.302 31.1 113.302 30.9806H113.725C113.725 31.0497 113.755 31.1204 113.817 31.1926C113.879 31.2508 113.982 31.3042 114.132 31.3544C114.251 31.4016 114.378 31.4345 114.516 31.4518C114.586 31.4581 114.642 31.466 114.689 31.4707C114.736 31.477 114.774 31.4817 114.804 31.4848H114.857C115.157 31.4848 115.38 31.455 115.528 31.3984C115.687 31.3372 115.803 31.2743 115.875 31.2099C115.947 31.1518 115.991 31.0984 116.01 31.0481C116.021 31.023 116.029 31.0026 116.034 30.9884C116.04 30.9743 116.043 30.9633 116.048 30.9554V30.8848C116.048 30.8738 116.046 30.8596 116.042 30.8408C116.034 30.8266 116.023 30.8109 116.007 30.7905C115.991 30.7701 115.965 30.7481 115.929 30.723C115.867 30.6759 115.754 30.6319 115.588 30.5926C115.504 30.5722 115.404 30.5565 115.288 30.547C115.17 30.5392 115.036 30.5345 114.884 30.5345C114.562 30.5345 114.298 30.5093 114.088 30.4575C113.89 30.4104 113.73 30.3428 113.605 30.258C113.486 30.1779 113.403 30.0884 113.356 29.9863C113.312 29.8857 113.294 29.8009 113.302 29.7318V29.6391C113.309 29.5245 113.34 29.4192 113.395 29.325C113.445 29.2386 113.511 29.1632 113.596 29.0988C113.675 29.0407 113.761 28.992 113.855 28.9527C113.902 28.9354 113.948 28.9181 113.993 28.9009C114.039 28.8852 114.085 28.8679 114.132 28.8506C114.312 28.8003 114.474 28.7689 114.619 28.7579C114.763 28.7469 114.838 28.7422 114.846 28.7422C115.208 28.7422 115.492 28.7831 115.702 28.8663C115.922 28.9496 116.087 29.0501 116.194 29.1648C116.31 29.27 116.384 29.3721 116.416 29.4742C116.449 29.5794 116.464 29.6376 116.464 29.6533L116.123 29.68L116.048 29.6957V29.6894L116.032 29.6297C116.004 29.5653 115.963 29.5072 115.913 29.4569C115.834 29.3878 115.717 29.3234 115.561 29.2621C115.402 29.1977 115.164 29.1648 114.846 29.1648H114.743C114.725 29.1679 114.705 29.171 114.686 29.1726C114.666 29.1726 114.644 29.1742 114.619 29.1742C114.593 29.1773 114.568 29.1805 114.543 29.1852C114.518 29.1899 114.491 29.1946 114.461 29.2009C114.347 29.2197 114.234 29.2496 114.125 29.2873C114.014 29.3234 113.923 29.3721 113.855 29.4287C113.769 29.4946 113.725 29.5747 113.725 29.669V29.6957L113.714 29.7177V29.7334C113.714 29.7444 113.72 29.7648 113.73 29.7978C113.741 29.8276 113.778 29.8669 113.844 29.9172C113.912 29.9643 114.026 30.0098 114.185 30.0538C114.341 30.0978 114.573 30.1198 114.884 30.1198C115.223 30.1198 115.489 30.1418 115.68 30.1889C115.778 30.2109 115.867 30.2376 115.949 30.2737C116.031 30.3083 116.101 30.3444 116.163 30.3837C116.279 30.4701 116.359 30.5628 116.406 30.6649C116.449 30.7685 116.471 30.8534 116.471 30.9178C116.471 30.9476 116.469 30.9664 116.466 30.9774V31.0151C116.46 31.034 116.452 31.056 116.444 31.0858C116.438 31.1141 116.423 31.1534 116.406 31.1989C116.387 31.2429 116.362 31.2885 116.328 31.3372C116.293 31.3858 116.249 31.4345 116.194 31.4848C116.079 31.5932 115.914 31.6874 115.702 31.7707C115.492 31.8539 115.211 31.8948 114.857 31.8948H114.846L114.845 31.8964Z" fill="var(--fill-0, white)"/>
<path id="Vector_11" d="M127.533 12.9841C127.134 12.9669 126.728 12.8663 126.253 12.67C124.805 12.0684 123.655 11.0693 122.837 9.70277C122.68 9.44044 122.468 9.29279 122.169 9.23938C121.99 9.2064 121.81 9.17969 121.629 9.15299C121.29 9.10273 120.938 9.05089 120.597 8.95821C120.595 8.95821 120.594 8.95821 120.591 8.95821C120.564 8.95821 120.547 8.97078 120.521 8.99277L120.496 9.01319C119.744 9.58181 119.268 10.3232 119.083 11.2186C119.083 11.2233 119.083 11.2421 119.083 11.2531C119.086 11.3003 119.089 11.3725 119.04 11.4243C119.007 11.4589 118.962 11.4762 118.902 11.4762C118.889 11.4762 118.875 11.4762 118.86 11.473C118.794 11.4652 118.712 11.4495 118.666 11.3866C118.619 11.3222 118.63 11.239 118.646 11.1605C118.831 10.229 119.303 9.43573 120.047 8.80271C119.753 8.7006 119.5 8.60165 119.259 8.47598C119.246 8.4697 119.241 8.4697 119.24 8.4697C119.233 8.4697 119.216 8.48698 119.205 8.4964L119.182 8.51682C118.525 9.07288 118.107 9.76717 117.938 10.5824C117.938 10.5871 117.938 10.6044 117.939 10.6154C117.944 10.6641 117.952 10.7363 117.901 10.7913C117.868 10.8274 117.818 10.8463 117.752 10.8463C117.744 10.8463 117.735 10.8463 117.725 10.8463C117.663 10.8416 117.572 10.829 117.521 10.7615C117.469 10.6939 117.482 10.606 117.499 10.5211C117.68 9.62737 118.126 8.85768 118.825 8.23565C118.432 7.98433 118.112 7.71886 117.846 7.42827C117.232 6.75754 116.832 5.91089 116.584 4.76736C116.478 4.28513 116.47 3.7919 116.461 3.31438C116.458 3.16045 116.455 3.00808 116.45 2.85414C116.437 2.51014 116.277 2.2918 115.949 2.16928C115.701 2.0766 115.435 2.02477 115.179 1.97293C115.016 1.93995 114.846 1.90696 114.681 1.86298L114.593 1.83941C114.41 1.79229 114.22 1.74203 114.044 1.64935C113.985 1.61793 113.891 1.56924 113.887 1.46243C113.882 1.33519 113.995 1.28493 114.056 1.25822C114.353 1.12785 114.666 1.07287 115.013 1.02103C115.244 0.986477 115.434 0.918935 115.608 0.80898C116.095 0.502677 116.634 0.205797 117.268 0.113121C117.414 0.09113 117.557 0.0817058 117.696 0.0817058C118.52 0.0817058 119.202 0.464977 119.725 1.22053C119.802 1.33048 119.887 1.46086 119.936 1.60223C120.179 2.31379 120.646 2.90755 121.096 3.48088L121.153 3.55314C121.711 4.26314 122.3 4.96842 122.868 5.65014C123.297 6.16379 123.74 6.69471 124.167 7.22407C124.463 7.59006 124.689 7.8995 124.877 8.19638C124.954 8.31733 125.02 8.43828 125.072 8.55609C125.13 8.68647 125.154 8.776 125.11 8.8514C125.085 8.89381 125.042 8.91737 124.99 8.93308C125.466 9.37918 125.9 9.80644 126.311 10.2384C126.753 10.6986 127.257 11.2406 127.675 11.8469C127.769 11.9835 127.888 12.1673 127.967 12.3778C128.041 12.5742 128.042 12.7265 127.967 12.8333C127.898 12.9339 127.769 12.9841 127.582 12.9841C127.566 12.9841 127.551 12.9841 127.533 12.9841ZM119.334 3.4212C119.125 3.4212 118.97 3.48403 118.844 3.61911L118.838 3.62697L118.83 3.63168C118.635 3.75734 118.594 3.88144 118.665 4.14376C118.949 5.20718 119.565 6.10881 120.55 6.89891C121.597 7.74086 122.881 8.27335 124.59 8.57494C124.601 8.57651 124.61 8.57808 124.62 8.57808C124.629 8.57808 124.635 8.57808 124.638 8.57651C124.637 8.57337 124.635 8.55923 124.624 8.5341C124.469 8.19638 124.247 7.8838 123.966 7.60577L123.96 7.59948L123.955 7.5932C123.804 7.36073 123.622 7.11882 123.382 6.83294C123.184 6.59889 122.984 6.36642 122.785 6.13394C122.362 5.64229 121.924 5.13335 121.517 4.61342C121.01 3.96626 120.386 3.58456 119.61 3.44947C119.502 3.43062 119.414 3.4212 119.334 3.4212ZM116.163 1.94309C116.538 2.13315 116.725 2.45516 116.744 2.93582C116.75 3.08191 116.739 3.22956 116.73 3.37093L116.726 3.42748C116.704 3.77933 116.869 3.97254 117.218 4.00553C117.276 4.01024 117.334 4.01338 117.391 4.01338C117.628 4.01338 117.875 3.97254 118.195 3.88144C118.267 3.86102 118.297 3.83431 118.326 3.76834C118.5 3.36622 118.801 3.16202 119.221 3.16202H119.255C119.516 3.16202 119.72 3.13217 119.903 3.06777C120.036 3.02065 120.119 2.95467 120.151 2.87299C120.182 2.7866 120.16 2.67664 120.085 2.54313C119.909 2.23525 119.609 2.13786 119.31 2.07974C118.633 1.94466 117.963 1.92738 117.396 1.92738C117.217 1.92738 117.039 1.92895 116.86 1.93209C116.785 1.93209 116.711 1.93209 116.635 1.93209C116.48 1.93209 116.321 1.93209 116.164 1.94151L116.163 1.94309ZM116.836 0.680175C117.455 0.680175 118.055 0.772852 118.621 0.953492L118.646 0.961346C118.817 1.01632 118.995 1.07287 119.174 1.09172C119.174 1.09172 119.215 1.098 119.222 1.098C119.215 1.09329 119.207 1.08072 119.2 1.07287C119.078 0.900085 118.938 0.771282 118.775 0.681747C118.418 0.483828 118.044 0.383296 117.666 0.383296C117.468 0.383296 117.264 0.41 117.061 0.464978C116.86 0.518384 116.648 0.582788 116.431 0.694313C116.568 0.68646 116.704 0.681747 116.836 0.681747V0.680175Z" fill="var(--fill-0, black)"/>
<path id="Vector_12" d="M117.694 0.161793C118.514 0.161793 119.163 0.549776 119.659 1.26762C119.738 1.38072 119.816 1.50167 119.86 1.63048C120.118 2.38445 120.609 2.99078 121.09 3.60338C122.069 4.84901 123.112 6.04281 124.106 7.27588C124.356 7.58689 124.596 7.90419 124.811 8.24191C124.882 8.35344 124.946 8.46967 125 8.59063C125.1 8.81839 125.07 8.86237 124.818 8.88122C125.316 9.3446 125.793 9.81113 126.255 10.2949C126.739 10.8007 127.211 11.3159 127.61 11.894C127.722 12.0558 127.824 12.2239 127.893 12.4076C128.017 12.7375 127.915 12.9071 127.584 12.9071C127.57 12.9071 127.554 12.9071 127.538 12.9071C127.101 12.8883 126.685 12.7658 126.285 12.5993C124.833 11.9961 123.709 11.0065 122.904 9.66347C122.727 9.36659 122.485 9.21737 122.183 9.16239C121.662 9.06814 121.131 9.02259 120.617 8.88279C120.605 8.87965 120.594 8.87808 120.583 8.87808C120.526 8.87808 120.489 8.92049 120.449 8.95034C119.692 9.52367 119.2 10.2651 119.006 11.2013C118.993 11.261 119.05 11.396 118.902 11.396C118.891 11.396 118.88 11.396 118.869 11.3945C118.706 11.3756 118.695 11.3159 118.723 11.1746C118.91 10.2368 119.378 9.47027 120.104 8.85609C120.126 8.83724 120.146 8.81839 120.168 8.79797C120.173 8.79483 120.173 8.78698 120.184 8.76656C119.871 8.65974 119.574 8.55136 119.293 8.40684C119.273 8.39585 119.254 8.39114 119.238 8.39114C119.193 8.39114 119.163 8.42884 119.13 8.45711C118.468 9.01788 118.037 9.71374 117.859 10.5667C117.846 10.6264 117.916 10.7693 117.751 10.7693C117.744 10.7693 117.736 10.7693 117.729 10.7693C117.55 10.7567 117.545 10.6813 117.575 10.54C117.763 9.61007 118.228 8.84823 118.955 8.22934C118.566 7.98744 118.209 7.71413 117.903 7.37955C117.22 6.63186 116.869 5.72708 116.659 4.75477C116.522 4.12802 116.551 3.49029 116.527 2.85569C116.513 2.47556 116.328 2.23209 115.976 2.10014C115.563 1.94463 115.123 1.90536 114.7 1.79227C114.488 1.73572 114.274 1.6886 114.078 1.58649C114.026 1.55979 113.965 1.52838 113.963 1.46712C113.96 1.39486 114.028 1.36344 114.086 1.33831C114.384 1.20636 114.705 1.15453 115.024 1.10583C115.25 1.07128 115.453 1.0053 115.649 0.882783C116.153 0.565484 116.678 0.285884 117.278 0.19792C117.421 0.1775 117.561 0.166505 117.694 0.166505M116.254 0.782253C116.273 0.782253 116.288 0.782251 116.304 0.780681C116.483 0.766543 116.661 0.75869 116.836 0.75869C117.433 0.75869 118.019 0.843512 118.596 1.02886C118.781 1.08855 118.968 1.15139 119.164 1.17024C119.185 1.17181 119.208 1.17809 119.229 1.17809C119.252 1.17809 119.276 1.17181 119.29 1.14667C119.318 1.10112 119.282 1.05714 119.255 1.02101C119.138 0.852936 118.99 0.714708 118.811 0.614178C118.442 0.409976 118.06 0.304733 117.664 0.304733C117.458 0.304733 117.251 0.333008 117.039 0.389556C116.73 0.471237 116.43 0.574909 116.123 0.782253C116.181 0.782253 116.219 0.782253 116.252 0.782253M117.389 4.0919C117.671 4.0919 117.942 4.03378 118.214 3.95681C118.305 3.93011 118.357 3.88926 118.396 3.79973C118.552 3.44159 118.816 3.24053 119.219 3.24053C119.222 3.24053 119.224 3.24053 119.227 3.24053C119.235 3.24053 119.244 3.24053 119.252 3.24053C119.48 3.24053 119.709 3.21854 119.926 3.14157C120.251 3.0269 120.32 2.80385 120.149 2.50383C119.964 2.17868 119.656 2.06873 119.321 2.00118C118.684 1.87395 118.038 1.84725 117.392 1.84725C117.213 1.84725 117.034 1.84882 116.854 1.85196C116.508 1.85667 116.163 1.84253 115.82 1.89908C116.375 2.04516 116.64 2.36718 116.662 2.93737C116.668 3.09916 116.656 3.26095 116.645 3.42117C116.62 3.81387 116.816 4.04634 117.207 4.08247C117.268 4.08876 117.328 4.09033 117.388 4.09033M124.62 8.65817C124.709 8.65817 124.739 8.59691 124.695 8.50266C124.53 8.14452 124.301 7.8288 124.021 7.55077C123.847 7.28059 123.649 7.02769 123.442 6.78265C122.82 6.04438 122.174 5.32496 121.579 4.5647C121.068 3.91283 120.429 3.51228 119.623 3.37248C119.526 3.3552 119.428 3.3442 119.334 3.3442C119.134 3.3442 118.944 3.39604 118.786 3.56725C118.566 3.70863 118.508 3.86727 118.586 4.16572C118.896 5.32182 119.581 6.22502 120.498 6.96172C121.69 7.9199 123.09 8.39271 124.574 8.65346C124.59 8.6566 124.604 8.65817 124.618 8.65817M117.694 0.00471456C117.553 0.00471456 117.405 0.0157087 117.254 0.0376997C116.607 0.131947 116.059 0.433538 115.564 0.744553C115.399 0.848225 115.22 0.912627 114.999 0.945613C114.645 0.99902 114.328 1.054 114.022 1.18909C113.96 1.21579 113.799 1.28804 113.805 1.46869C113.811 1.61948 113.938 1.6886 114.001 1.72001C114.188 1.81897 114.383 1.86924 114.571 1.91793L114.658 1.93992C114.826 1.9839 114.995 2.01846 115.16 2.04988C115.426 2.10171 115.676 2.15198 115.919 2.24151C116.219 2.35461 116.357 2.5431 116.37 2.85569C116.376 3.00806 116.378 3.16042 116.381 3.31436C116.39 3.79502 116.398 4.29296 116.505 4.78304C116.756 5.94228 117.163 6.79836 117.787 7.48008C118.038 7.75497 118.337 8.00629 118.696 8.24505C118.027 8.86708 117.6 9.62577 117.421 10.5054C117.405 10.5808 117.38 10.7065 117.457 10.8086C117.528 10.8997 117.639 10.9185 117.718 10.9232C117.729 10.9232 117.74 10.9232 117.751 10.9232C117.84 10.9232 117.909 10.8965 117.958 10.8416C118.032 10.7599 118.021 10.6594 118.016 10.6044C118.016 10.5981 118.016 10.5918 118.015 10.5855C118.184 9.78128 118.582 9.12312 119.232 8.57335C119.238 8.56863 119.244 8.56235 119.251 8.55607C119.453 8.65817 119.661 8.74299 119.895 8.82624C119.196 9.45456 118.75 10.2321 118.571 11.1384C118.558 11.2044 118.533 11.3285 118.605 11.4259C118.67 11.5154 118.778 11.5358 118.853 11.5453C118.872 11.5468 118.889 11.5484 118.905 11.5484C119.007 11.5484 119.069 11.5076 119.102 11.473C119.174 11.396 119.169 11.2955 119.166 11.2421C119.166 11.2343 119.166 11.228 119.166 11.2217C119.351 10.3373 119.804 9.63363 120.548 9.06972C120.558 9.06186 120.567 9.05558 120.576 9.04772C120.583 9.04301 120.589 9.03673 120.595 9.03202C120.93 9.12312 121.28 9.17496 121.619 9.22522C121.797 9.25193 121.979 9.27863 122.158 9.31162C122.433 9.36188 122.628 9.49697 122.772 9.73887C123.6 11.1212 124.763 12.1312 126.227 12.7391C126.71 12.9401 127.125 13.0422 127.533 13.0595C127.551 13.0595 127.568 13.0595 127.585 13.0595C127.799 13.0595 127.95 12.9967 128.035 12.8742C128.124 12.7454 128.126 12.5679 128.042 12.3464C127.961 12.1296 127.838 11.9395 127.741 11.7982C127.32 11.1871 126.812 10.6421 126.37 10.1787C125.978 9.77029 125.57 9.36659 125.125 8.94719C125.146 8.93149 125.163 8.91107 125.177 8.8875C125.246 8.77284 125.198 8.64403 125.144 8.52151C125.091 8.40056 125.023 8.27647 124.945 8.15081C124.755 7.85079 124.527 7.53977 124.23 7.17064C123.801 6.63971 123.358 6.10721 122.928 5.59357C122.359 4.91342 121.772 4.20971 121.216 3.49971L121.158 3.42745C120.691 2.8337 120.25 2.27136 120.011 1.57393C119.959 1.42156 119.871 1.28804 119.791 1.17338C119.254 0.394267 118.549 0 117.697 0L117.694 0.00471456ZM116.868 0.601611C116.94 0.578049 117.011 0.5592 117.081 0.540351C117.279 0.488515 117.476 0.461811 117.667 0.461811C118.032 0.461811 118.393 0.559202 118.739 0.750838C118.849 0.812098 118.949 0.892208 119.037 0.991168C118.916 0.966035 118.797 0.928336 118.673 0.887495L118.646 0.879641C118.082 0.699 117.485 0.604753 116.869 0.601611H116.868ZM116.414 2.01218C116.486 2.01218 116.56 2.01218 116.635 2.01218C116.711 2.01218 116.785 2.01218 116.86 2.01218C117.039 2.00904 117.218 2.00747 117.396 2.00747C117.958 2.00747 118.624 2.02474 119.295 2.15826C119.618 2.22266 119.865 2.32005 120.016 2.58394C120.06 2.66091 120.105 2.7693 120.077 2.84783C120.049 2.92166 119.953 2.97036 119.876 2.99706C119.703 3.05832 119.505 3.08659 119.254 3.08659H119.23H119.221C118.773 3.08659 118.439 3.31279 118.253 3.74004C118.234 3.78402 118.222 3.79345 118.173 3.80915C117.862 3.89869 117.62 3.93796 117.391 3.93796C117.334 3.93796 117.279 3.93482 117.224 3.93011C116.918 3.90183 116.785 3.74475 116.805 3.43531L116.808 3.37876C116.818 3.23425 116.827 3.08502 116.822 2.93423C116.807 2.52897 116.673 2.22423 116.414 2.01375V2.01218ZM124.511 8.48224C122.862 8.18065 121.616 7.65758 120.598 6.8392C119.628 6.05852 119.02 5.17103 118.74 4.12488C118.673 3.87356 118.725 3.79345 118.872 3.6992L118.889 3.68821L118.904 3.67407C119.015 3.55469 119.149 3.50128 119.337 3.50128C119.413 3.50128 119.496 3.50914 119.599 3.52798C120.355 3.65993 120.963 4.03064 121.458 4.66209C121.866 5.18359 122.304 5.69253 122.727 6.18575C122.926 6.41823 123.126 6.65071 123.324 6.88475C123.563 7.16749 123.743 7.40625 123.891 7.63716L123.9 7.6513L123.913 7.66386C124.163 7.91205 124.365 8.18851 124.513 8.48381L124.511 8.48224Z" fill="var(--fill-0, white)"/>
<path id="Vector_13" d="M118.786 3.56568C119.021 3.31278 119.325 3.31906 119.623 3.3709C120.427 3.51227 121.067 3.91282 121.579 4.56312C122.174 5.32181 122.82 6.04281 123.442 6.78107C123.649 7.02612 123.847 7.27901 124.021 7.54919C124.062 7.77381 124.048 7.78638 123.822 7.74082C123.793 7.73454 123.765 7.7314 123.737 7.72512C122.554 7.50521 121.442 7.11251 120.478 6.3711C119.686 5.76163 119.087 5.00766 118.792 4.03691C118.745 3.87983 118.712 3.72275 118.786 3.5641V3.56568Z" fill="var(--fill-0, #FCB716)"/>
<path id="Vector_14" d="M115.822 1.89905C116.164 1.8425 116.511 1.85664 116.855 1.85193C117.682 1.83936 118.508 1.83936 119.323 2.00115C119.658 2.06713 119.966 2.17865 120.151 2.5038C120.322 2.80382 120.253 3.02687 119.928 3.14154C119.702 3.22165 119.465 3.24207 119.229 3.2405C118.821 3.23736 118.554 3.43842 118.398 3.7997C118.359 3.88924 118.308 3.93008 118.216 3.95678C117.886 4.05103 117.554 4.11543 117.21 4.08401C116.819 4.04788 116.623 3.81541 116.648 3.42271C116.659 3.26092 116.672 3.09913 116.665 2.93891C116.643 2.36872 116.376 2.04671 115.823 1.90062L115.822 1.89905Z" fill="var(--fill-0, white)"/>
<path id="Vector_15" d="M118.786 3.56564C118.712 3.72429 118.743 3.88136 118.792 4.03844C119.087 5.00762 119.686 5.76316 120.478 6.37263C121.442 7.11404 122.554 7.50674 123.737 7.72665C123.765 7.73136 123.793 7.73607 123.822 7.74235C124.048 7.78791 124.061 7.77534 124.021 7.55072C124.301 7.82875 124.53 8.14447 124.695 8.50261C124.745 8.611 124.698 8.6754 124.576 8.65341C123.091 8.39109 121.692 7.91985 120.5 6.96167C119.582 6.22498 118.896 5.32177 118.588 4.16568C118.508 3.86723 118.566 3.70858 118.787 3.56721L118.786 3.56564Z" fill="var(--fill-0, white)"/>
<path id="Vector_16" d="M116.125 0.780676C116.431 0.573333 116.731 0.469661 117.04 0.38798C117.662 0.223048 118.253 0.301588 118.812 0.612604C118.991 0.711563 119.139 0.851362 119.257 1.01944C119.283 1.05714 119.318 1.09955 119.291 1.1451C119.263 1.19222 119.208 1.17337 119.164 1.17023C118.968 1.15138 118.781 1.08855 118.595 1.02886C117.848 0.788531 117.083 0.717845 116.302 0.780676C116.258 0.783818 116.214 0.780676 116.125 0.780676Z" fill="var(--fill-0, white)"/>
<path id="Vector_17" d="M0 0.446085V0.295288H10.8714C14.1857 0.295288 18.6043 1.19849 18.6043 4.8647C18.6043 5.54328 18.4284 6.27056 18.0514 6.87374C16.922 8.63145 13.8339 9.30845 12.7548 9.48438L13.5072 9.55978C15.4911 9.76084 18.4536 10.3876 19.6081 13.2009C19.8594 13.804 19.9599 14.4057 19.9599 15.0088C19.9599 15.912 19.6835 16.7917 19.1808 17.4938C17.599 19.7275 15.2649 19.9537 11.9002 19.9537H0V19.8029H0.150796C2.8117 19.8029 2.98763 19.0505 2.98763 16.8906V3.35832C2.98763 1.20006 2.8117 0.446085 0.150796 0.446085H0ZM12.8788 5.36578C12.8788 4.26152 12.8034 3.15569 12.7029 2.35302C12.527 0.570177 10.9703 0.444512 9.28804 0.444512H8.73512V9.40741H10.0153C12.0997 9.40741 12.8773 9.23149 12.8773 5.36578H12.8788ZM13.1804 18.02C13.3312 17.3917 13.4569 16.1367 13.4569 14.7811C13.4569 13.0234 13.2307 11.1164 12.5286 10.3373C11.9254 9.66031 10.5949 9.58491 9.5912 9.58491H8.73826V17.5189C8.73826 19.6034 8.98959 19.8044 10.5211 19.8044C12.3542 19.8044 12.805 19.5028 13.182 18.0216L13.1804 18.02Z" fill="var(--fill-0, white)"/>
<path id="Vector_18" d="M26.8384 13.2244V14.756C26.8384 17.9446 27.4164 19.8516 29.7255 19.8516C32.4115 19.8516 33.943 16.9896 34.2195 14.4544H34.3954C34.2446 15.7597 33.7168 18.2462 31.634 19.5013C30.9318 19.9286 29.8763 20.1045 28.7971 20.1045C23.1737 20.1045 21.7679 16.1885 21.7679 13.702C21.7679 11.894 22.4465 9.98705 24.2042 8.27961C25.4592 7.07482 27.1164 6.5973 28.5977 6.5973C31.8617 6.5973 33.2927 8.5058 34.02 10.3876C34.3467 11.2908 34.3719 12.1453 34.3719 13.2244H26.8399H26.8384ZM26.8384 12.3212V13.0485H29.7757C29.826 12.0699 29.8511 10.763 29.8511 9.83468C29.8511 8.50423 29.826 7.5005 29.0987 6.87218C28.9982 6.77165 28.7971 6.74652 28.5458 6.74652C27.1148 6.74652 26.8384 8.4791 26.8384 12.3197V12.3212Z" fill="var(--fill-0, white)"/>
<path id="Vector_19" d="M35.4745 6.74652H42.6546V8.98175C43.2813 7.37484 44.7641 6.5973 46.5705 6.5973C47.6245 6.5973 48.5026 6.87375 49.1812 7.39997C50.4111 8.37857 50.6122 9.58336 50.6122 11.1903V17.3415C50.6122 19.1997 50.7881 19.8013 52.7453 19.8013V19.9521H44.4861V19.8013C45.515 19.8013 45.5904 18.9484 45.5904 17.3415V10.6389C45.5904 8.10368 45.1129 7.62616 44.3856 7.62616C44.2348 7.62616 43.4808 7.70156 43.0803 8.50423C42.8038 9.05715 42.653 9.4577 42.653 11.4919V17.3415C42.653 18.9484 42.7284 19.8013 43.7573 19.8013V19.9521H35.473V19.8013C37.4317 19.8013 37.6077 19.1997 37.6077 17.3415V9.38387C37.6077 7.52563 37.4317 6.92402 35.473 6.92402V6.74809L35.4745 6.74652Z" fill="var(--fill-0, white)"/>
<path id="Vector_20" d="M54.9821 16.0613V6.92242H53.6767V6.7465C55.3339 6.6711 56.6392 6.09305 57.7686 5.31551C58.5729 4.76259 59.7274 3.784 59.9017 1.95089H60.0525V6.7465H62.338V6.92242H60.0525V16.7634C60.0525 18.9232 60.1531 19.1243 60.6306 19.1243C60.8317 19.1243 61.2573 19.0489 61.6343 18.119C61.8605 17.5661 62.0616 16.2859 62.0616 15.0811H62.2375C62.2375 15.8602 62.137 16.6629 61.9862 17.4168C61.7851 18.4206 61.4097 20.0777 58.521 20.0777C55.6324 20.0777 54.9805 18.8478 54.9805 16.0613H54.9821Z" fill="var(--fill-0, white)"/>
<path id="Vector_21" d="M68.8914 13.2244V14.756C68.8914 17.9446 69.4679 19.8516 71.7785 19.8516C74.4646 19.8516 75.9961 16.9896 76.2725 14.4544H76.4485C76.2977 15.7597 75.7699 18.2462 73.687 19.5013C72.9833 19.9286 71.9293 20.1045 70.8502 20.1045C65.2268 20.1045 63.8209 16.1885 63.8209 13.702C63.8209 11.894 64.4995 9.98705 66.2557 8.27961C67.5107 7.07482 69.1679 6.5973 70.6491 6.5973C73.9132 6.5973 75.3442 8.5058 76.0715 10.3876C76.3982 11.2908 76.4233 12.1453 76.4233 13.2244H68.8914ZM68.8914 12.3212V13.0485H71.8288C71.8791 12.0699 71.9042 10.763 71.9042 9.83468C71.9042 8.50423 71.8791 7.5005 71.1518 6.87218C71.0513 6.77165 70.8502 6.74652 70.5989 6.74652C69.1679 6.74652 68.8914 8.4791 68.8914 12.3197V12.3212Z" fill="var(--fill-0, white)"/>
<path id="Vector_22" d="M84.4313 7.6513C84.4313 8.05343 84.6575 8.68017 84.9324 9.50954L87.3168 16.6645L88.7478 11.9191C88.974 11.1903 89.2504 10.2368 89.2504 9.30848C89.2504 8.60634 89.0997 7.92776 88.6221 7.39998C88.3959 7.14865 87.8446 6.92246 87.1409 6.92246H87.0404V6.74653H92.7392V6.92246H92.714C90.229 6.92246 89.5756 9.70903 89.0981 11.3411L86.5377 19.9521H83.0239L79.0074 9.00532C78.3052 7.09682 78.3288 6.92089 76.9983 6.92089V6.74496H85.7602V6.92089C85.0313 6.94602 84.4297 7.07168 84.4297 7.64816L84.4313 7.6513Z" fill="var(--fill-0, white)"/>
<path id="Vector_23" d="M96.5073 13.2244V14.756C96.5073 17.9446 97.0838 19.8516 99.3944 19.8516C102.08 19.8516 103.612 16.9896 103.888 14.4544H104.064C103.914 15.7597 103.386 18.2462 101.303 19.5013C100.599 19.9286 99.5452 20.1045 98.4661 20.1045C92.8427 20.1045 91.4368 16.1885 91.4368 13.702C91.4368 11.894 92.1154 9.98705 93.8715 8.27961C95.1266 7.07482 96.7838 6.5973 98.265 6.5973C101.529 6.5973 102.96 8.5058 103.687 10.3876C104.014 11.2908 104.039 12.1453 104.039 13.2244H96.5073ZM96.5073 12.3212V13.0485H99.4447C99.4949 12.0699 99.5201 10.763 99.5201 9.83468C99.5201 8.50423 99.4949 7.5005 98.7677 6.87218C98.6671 6.77165 98.4661 6.74652 98.2148 6.74652C96.7838 6.74652 96.5073 8.4791 96.5073 12.3197V12.3212Z" fill="var(--fill-0, white)"/>
<path id="Vector_24" d="M112.625 6.5973C116.367 6.5973 119.529 9.61006 119.529 13.3501C119.529 17.0901 116.365 20.1029 112.625 20.1029C108.885 20.1029 105.722 17.0901 105.722 13.3501C105.722 9.61006 108.885 6.5973 112.625 6.5973ZM114.282 9.65876C114.282 7.57433 113.654 6.77165 112.625 6.77165C111.596 6.77165 110.993 7.57433 110.993 9.65876V17.0399C110.993 19.1243 111.622 19.927 112.625 19.927C113.629 19.927 114.282 19.1243 114.282 17.0399V9.65876Z" fill="var(--fill-0, white)"/>
</g>
</svg>
