<?xml version="1.0" encoding="UTF-8"?><svg id="Capa_1" xmlns="http://www.w3.org/2000/svg" viewBox="0 0 60 60"><path d="M49.81,25.4h-3.45c-.27,0-.49.22-.49.49s.22.49.49.49h3.45c.27,0,.49-.22.49-.49s-.22-.49-.49-.49Z" fill="#000" stroke-width="0"/><path d="M46.36,56.6h3.45c.27,0,.49-.22.49-.49s-.22-.49-.49-.49h-3.45c-.27,0-.49.22-.49.49s.22.49.49.49Z" fill="#000" stroke-width="0"/><path d="M50.39,33.04c-.26-.08-.53.07-.61.34l-4.34,15.11c-.07.26.08.53.34.61.05.01.09.02.14.02.21,0,.41-.14.47-.36l4.34-15.11c.07-.26-.08-.53-.34-.61Z" fill="#000" stroke-width="0"/><path d="M56.46,40.66l-4.22-4.27c-.19-.19-.5-.2-.7,0-.19.19-.19.5,0,.7l3.88,3.93-3.89,4c-.19.19-.19.51,0,.7.1.09.22.14.34.14s.26-.05.35-.15l4.23-4.34c.19-.19.19-.5,0-.69Z" fill="#fbb900" stroke-width="0"/><path d="M44.62,36.38c-.19-.19-.5-.19-.7,0l-4.23,4.34c-.19.19-.19.5,0,.69l4.22,4.27c.1.1.22.15.35.15s.25-.05.35-.14c.19-.19.19-.5,0-.7l-3.88-3.93,3.89-4c.19-.19.19-.51,0-.7Z" fill="#fbb900" stroke-width="0"/><path d="M56.17,0h-3.81c-.27,0-.49.22-.49.49s.22.49.49.49h3.81c1.5,0,2.72,1.22,2.72,2.72v4.7H1.11V3.71C1.11,2.21,2.33.99,3.83.99h43.89c.27,0,.49-.22.49-.49s-.22-.49-.49-.49H3.83C1.79,0,.12,1.67.12,3.71v40.37c0,2.04,1.66,3.7,3.7,3.7h32.46v8.77c0,1.9,1.54,3.44,3.44,3.44h1.98c.27,0,.49-.22.49-.49s-.22-.49-.49-.49h-1.98c-1.36,0-2.46-1.1-2.46-2.46v-2.98h21.62v2.98c0,1.36-1.1,2.46-2.46,2.46h-10.08c-.27,0-.49.22-.49.49s.22.49.49.49h10.08c1.9,0,3.44-1.54,3.44-3.44V3.71C59.88,1.67,58.21,0,56.17,0ZM58.89,28.5h-21.62v-3.04c0-1.36,1.1-2.46,2.46-2.46h16.7c1.36,0,2.46,1.1,2.46,2.46v3.04ZM37.27,52.59v-23.11h21.62v23.11h-21.62ZM56.43,22.01h-16.7c-1.9,0-3.44,1.54-3.44,3.44v21.34H3.83c-1.5,0-2.72-1.22-2.72-2.72V9.4h57.79v13.66c-.63-.64-1.5-1.04-2.46-1.04Z" fill="#000" stroke-width="0"/><path d="M18.92,4.86c0,.27.22.49.49.49h35.77c.27,0,.49-.22.49-.49s-.22-.49-.49-.49H19.41c-.27,0-.49.22-.49.49Z" fill="#000" stroke-width="0"/><path d="M4.4,4.37c-.27,0-.49.22-.49.49s.22.49.49.49h1.87c.27,0,.49-.22.49-.49s-.22-.49-.49-.49h-1.87Z" fill="#fbb900" stroke-width="0"/><path d="M8.38,4.37c-.27,0-.49.22-.49.49s.22.49.49.49h1.9c.27,0,.49-.22.49-.49s-.22-.49-.49-.49h-1.9Z" fill="#fbb900" stroke-width="0"/><path d="M12.38,4.37c-.27,0-.49.22-.49.49s.22.49.49.49h1.9c.27,0,.49-.22.49-.49s-.22-.49-.49-.49h-1.9Z" fill="#fbb900" stroke-width="0"/><path d="M30.3,15.89H7.35c-1.9,0-3.44,1.54-3.44,3.44v17.18c0,1.9,1.54,3.44,3.44,3.44h22.95c1.9,0,3.44-1.54,3.44-3.44v-17.18c0-1.9-1.54-3.44-3.44-3.44ZM5.55,38.16l9.27-14.28,6.72,10.84s0,0,0,0l2.64,4.25H7.35c-.72,0-1.36-.31-1.81-.81ZM25.33,38.97l-2.79-4.5,3.23-4.62,6.05,8.58c-.42.33-.94.54-1.52.54h-4.97ZM32.76,36.51c0,.41-.11.79-.29,1.13l-6.3-8.93c-.09-.13-.24-.21-.4-.21h0c-.16,0-.31.08-.4.21l-3.39,4.85-6.73-10.86c-.09-.14-.24-.23-.41-.23-.14,0-.33.08-.42.22l-9.4,14.5c-.06-.22-.11-.44-.11-.68v-17.18c0-1.36,1.1-2.46,2.46-2.46h22.95c1.36,0,2.46,1.1,2.46,2.46v17.18Z" fill="#000" stroke-width="0"/><path d="M22.88,19.95c-1.66,0-3.01,1.35-3.01,3.01s1.35,3.01,3.01,3.01,3.01-1.35,3.01-3.01-1.35-3.01-3.01-3.01ZM22.88,24.98c-1.12,0-2.03-.91-2.03-2.03s.91-2.03,2.03-2.03,2.03.91,2.03,2.03-.91,2.03-2.03,2.03Z" fill="#fbb900" stroke-width="0"/><path d="M50.04.99c.27,0,.5-.22.5-.5s-.22-.5-.5-.5-.5.22-.5.5.22.5.5.5Z" fill="#fbb900" stroke-width="0"/><circle cx="44.04" cy="59.5" r=".5" fill="#fbb900" stroke-width="0"/><path d="M56.11,15.89h-19.33c-.27,0-.49.22-.49.49s.22.49.49.49h19.33c.27,0,.49-.22.49-.49s-.22-.49-.49-.49Z" fill="#000" stroke-width="0"/><path d="M54,18.91h-17.22c-.27,0-.49.22-.49.49s.22.49.49.49h17.22c.27,0,.49-.22.49-.49s-.22-.49-.49-.49Z" fill="#000" stroke-width="0"/></svg>