<svg version="1.1" xmlns="http://www.w3.org/2000/svg" xmlns:xlink="http://www.w3.org/1999/xlink" viewBox="0 0 245 58">
	<polygon fill="#01356E" points="245,10.5 245,0 221.8,0 221.8,10.5 225.9,10.5 218.4,21.8 210.9,10.5 215.2,10.5 215.2,0 191.9,0 191.9,10.5 195.6,10.5 208.3,28.5 195.6,47.3 191.9,47.3 191.9,58 215.2,58 215.2,47.3 210.9,47.3 218.4,35.2 225.9,47.3 221.8,47.3 221.8,58 245,58 245,47.3 240.9,47.3 229,28.5 240.9,10.5"/>
	<path fill="#01356E" d="M145.3,10.6h4.9v36.8h-6.5v0H139l-7.5-13.9c1-0.4,1.9-0.5,3.3-1.5c5.8-3.9,6.2-12.1,6.2-14.2C141,8.6,137.9,0,117.1,0H94.4v10.6h4.8v36.8h-3.1h-4.5L80.2,10.6h3.5V0H51.6v10.6h3.7L43.9,47.4h-4.8V58h21.5V47.4h-4.2c0.7-2,1.8-5.7,2.2-6.9h16.6c0.4,1.2,1.1,5,1.7,6.9h-4.5V58h23.7h21.8V47.4H113V35h4.9l10.8,23h13.5h46.3V39.7h-9.2l-2,7.7h-13.4V34.5h13.5V23.8h-13.5V10.6h13.4l2,8.2h9.2V0h-43.4V10.6z M61.6,29.9c0.7-2.2,4.9-15.8,5.4-18.4c0.5,2.7,4.6,16.2,5.3,18.4H61.6z M123.7,24.2c-1.5,0.6-3.6,0.7-5.8,0.7H113V10.6h5.8c2.7,0,4.7,0,6.5,1.7c1.4,1.3,2,3.2,2,5.6C127.4,20,126.8,22.8,123.7,24.2"/>
	<path fill="#01356E" d="M46,18.8c0-3.9-1.2-9.8-4.8-13.7c-4.9-5-12.4-5-20.4-5.1H0v10.6h4.8v36.8H0V58h23.9V47.4h-5.2v-9.8h6.7h0.2c3.7-0.1,9.8-0.4,14.2-3.7C45.5,29.6,46,21.1,46,18.8 M28.5,26c-1.5,0.7-3.6,0.8-5.8,0.8h-3.9V10.6h4.8c2.7,0,4.7,0.1,6.5,1.9c1.4,1.5,2.1,3.6,2.1,6.3C32.1,21.3,31.5,24.5,28.5,26"/>
</svg>