<?xml version="1.0" encoding="UTF-8"?><svg id="Capa_1" xmlns="http://www.w3.org/2000/svg" viewBox="0 0 60 60"><path d="M4.29,7.19c0,.67.54,1.2,1.2,1.2s1.2-.54,1.2-1.2-.54-1.2-1.2-1.2-1.2.54-1.2,1.2Z" fill="#fbb900" stroke-width="0"/><path d="M8.41,7.19c0,.67.54,1.2,1.2,1.2s1.2-.54,1.2-1.2-.54-1.2-1.2-1.2-1.2.54-1.2,1.2Z" fill="#fbb900" stroke-width="0"/><path d="M22.28,36.89c6.02,0,10.91-4.89,10.91-10.91s-4.89-10.91-10.91-10.91-10.91,4.89-10.91,10.91,4.89,10.91,10.91,10.91ZM22.28,16.06c5.47,0,9.91,4.45,9.91,9.91s-4.45,9.91-9.91,9.91-9.91-4.45-9.91-9.91,4.45-9.91,9.91-9.91Z" fill="#000" stroke-width="0"/><path d="M18.9,31.29c.29.16.6.25.91.25s.63-.08.91-.25l6.46-3.73c.57-.33.91-.92.91-1.58s-.34-1.25-.91-1.58l-6.46-3.73c-.57-.33-1.25-.33-1.83,0-.57.33-.91.92-.91,1.58v7.46c0,.66.34,1.25.91,1.58ZM18.98,22.25c0-.3.16-.57.42-.72.13-.07.27-.11.41-.11s.29.04.42.11l6.46,3.73c.26.15.42.42.42.72s-.15.57-.42.72l-6.46,3.73c-.26.15-.57.15-.83,0-.26-.15-.42-.42-.42-.72v-7.46Z" fill="#fbb900" stroke-width="0"/><path d="M32.66,3.28c.28,0,.5-.23.5-.5s-.23-.5-.5-.5-.5.23-.5.5.23.5.5.5Z" fill="#fbb900" stroke-width="0"/><path d="M51.78,40.81c-.28,0-.5.23-.5.5s.23.5.5.5.5-.23.5-.5-.23-.5-.5-.5Z" fill="#fbb900" stroke-width="0"/><path d="M56.51,18.18h-4.23v-4.78c0-1.92-1.57-3.49-3.49-3.49h-4.23v-4.15c0-1.92-1.57-3.49-3.49-3.49h-6.06c-.28,0-.5.22-.5.5s.22.5.5.5h6.06c1.37,0,2.49,1.12,2.49,2.49v4.78H1v-4.78c0-1.37,1.12-2.49,2.49-2.49h26.82c.28,0,.5-.22.5-.5s-.22-.5-.5-.5H3.49C1.57,2.27,0,3.83,0,5.76v32.57C0,40.25,1.57,41.81,3.49,41.81h4.23v4.15c0,1.92,1.57,3.49,3.49,3.49h4.25s-.03.08-.03.13v4.65c0,1.92,1.57,3.49,3.49,3.49h16.88c.28,0,.5-.22.5-.5s-.22-.5-.5-.5h-16.88c-1.37,0-2.49-1.12-2.49-2.49v-4.65s-.01-.09-.03-.13h32.39c1.92,0,3.49-1.57,3.49-3.49v-2.3c0-.28-.22-.5-.5-.5s-.5.22-.5.5v2.3c0,1.37-1.12,2.49-2.49,2.49H11.21c-1.37,0-2.49-1.12-2.49-2.49v-4.15h32.36c1.92,0,3.49-1.57,3.49-3.49v-19.14h6.72v7.77s0,0,0,0,0,0,0,0v12c0,.28.22.5.5.5s.5-.22.5-.5v-11.51h6.72v26.79c0,1.37-1.12,2.49-2.49,2.49h-16c-.28,0-.5.22-.5.5s.22.5.5.5h16c1.92,0,3.49-1.57,3.49-3.49V21.67c0-1.92-1.57-3.49-3.49-3.49ZM43.57,38.32c0,1.37-1.12,2.49-2.49,2.49H3.49c-1.37,0-2.49-1.12-2.49-2.49V11.54h42.57v26.79ZM51.29,18.18h-6.72v-7.27h4.23c1.37,0,2.49,1.12,2.49,2.49v4.78ZM59,26.45h-6.72v-7.27h4.23c1.37,0,2.49,1.12,2.49,2.49v4.78Z" fill="#000" stroke-width="0"/><path d="M38.16,56.72c-.28,0-.5.23-.5.5s.23.5.5.5.5-.23.5-.5-.23-.5-.5-.5Z" fill="#fbb900" stroke-width="0"/></svg>