<svg width="32" height="32" viewBox="0 0 32 32" fill="none" xmlns="http://www.w3.org/2000/svg">
<g clip-path="url(#clip0_6_3429)">
<path d="M16 12C13.7778 12 12 13.7778 12 16C12 18.2222 13.7778 20 16 20C18.2222 20 20 18.2222 20 16C20 13.7778 18.2222 12 16 12Z" fill="#F8F8F8"/>
<path d="M25.3338 8.88886C25.156 8.35552 24.8894 7.91108 24.4449 7.46663C24.0005 7.02219 23.6449 6.75552 23.0227 6.57775C22.5783 6.39997 21.956 6.22219 20.8005 6.1333C19.556 6.1333 19.1116 6.1333 15.9116 6.1333C12.7116 6.1333 12.356 6.1333 11.0227 6.1333C9.86714 6.1333 9.24492 6.39997 8.80048 6.57775C8.26714 6.75552 7.8227 7.02219 7.37826 7.46663C6.93381 7.91108 6.66714 8.26663 6.48937 8.88886C6.31159 9.3333 6.13381 9.95552 6.04492 11.1111C6.04492 12.3555 6.04492 12.8 6.04492 16C6.04492 19.2 6.04492 19.5555 6.04492 20.8889C6.04492 22.0444 6.31159 22.6666 6.48937 23.1111C6.66714 23.6444 6.93381 24.0889 7.37826 24.5333C7.8227 24.9777 8.17825 25.2444 8.80048 25.4222C9.24492 25.6 9.86714 25.7777 11.0227 25.8666C12.2671 25.8666 12.6227 25.8666 15.9116 25.8666C19.2005 25.8666 19.4671 25.8666 20.8005 25.8666C21.956 25.8666 22.5783 25.6 23.0227 25.4222C23.556 25.2444 24.0005 24.9777 24.4449 24.5333C24.8894 24.0889 25.156 23.7333 25.3338 23.1111C25.5116 22.6666 25.6894 22.0444 25.7783 20.8889C25.7783 19.6444 25.7783 19.2 25.7783 16C25.7783 12.8 25.7783 12.4444 25.7783 11.1111C25.7783 9.95552 25.5116 9.3333 25.3338 8.88886ZM16.0005 22.1333C12.6227 22.1333 9.86714 19.3777 9.86714 16C9.86714 12.6222 12.6227 9.86663 16.0005 9.86663C19.3783 9.86663 22.1338 12.6222 22.1338 16C22.1338 19.3777 19.3783 22.1333 16.0005 22.1333ZM22.4005 11.0222C21.6005 11.0222 20.9783 10.4 20.9783 9.59997C20.9783 8.79997 21.6005 8.17775 22.4005 8.17775C23.2005 8.17775 23.8227 8.79997 23.8227 9.59997C23.8227 10.4 23.2005 11.0222 22.4005 11.0222Z" fill="#F8F8F8"/>
<path d="M24 0H8C3.55556 0 0 3.55556 0 8V24C0 28.4444 3.55556 32 8 32H24C28.4444 32 32 28.4444 32 24V8C32 3.55556 28.4444 0 24 0ZM27.9111 20.9778C27.9111 22.2222 27.6444 23.1111 27.3778 23.9111C27.1111 24.7111 26.6667 25.3333 25.9556 26.0444C25.2444 26.7556 24.6222 27.1111 23.8222 27.4667C23.0222 27.7333 22.2222 28 20.8889 28C19.6444 28 19.2 28 15.9111 28C12.6222 28 12.2667 28 10.9333 28C9.68889 28 8.8 27.7333 8 27.4667C7.2 27.2 6.57778 26.7556 5.86667 26.0444C5.15556 25.4222 4.8 24.7111 4.44444 23.9111C4.17778 23.1111 3.91111 22.3111 3.91111 20.9778C3.91111 19.7333 3.91111 19.2889 3.91111 16C3.91111 12.7111 3.91111 12.3556 3.91111 11.0222C3.91111 9.77778 4.17778 8.88889 4.44444 8.08889C4.71111 7.28889 5.15556 6.66667 5.86667 5.95556C6.57778 5.24444 7.2 4.88889 8 4.53333C8.8 4.26667 9.6 4 10.9333 4C12.1778 4 12.6222 4 15.9111 4C19.2 4 19.5556 4 20.8889 4C22.1333 4 23.0222 4.26667 23.8222 4.53333C24.6222 4.8 25.2444 5.24444 25.9556 5.95556C26.6667 6.66667 27.0222 7.28889 27.3778 8.08889C27.6444 8.88889 27.9111 9.68889 27.9111 11.0222C27.9111 12.2667 27.9111 12.7111 27.9111 16C27.9111 19.2889 27.9111 19.6444 27.9111 20.9778Z" fill="#F8F8F8"/>
</g>
<defs>
<clipPath id="clip0_6_3429">
<rect width="32" height="32" fill="white"/>
</clipPath>
</defs>
</svg>
