<svg preserveAspectRatio="none" width="100%" height="100%" overflow="visible" style="display: block;" viewBox="0 0 179 32" fill="none" xmlns="http://www.w3.org/2000/svg">
<g id="Frame 1306">
<g id="instagram" clip-path="url(#clip0_0_9)">
<path id="Vector" d="M16 12C13.7778 12 12 13.7778 12 16C12 18.2222 13.7778 20 16 20C18.2222 20 20 18.2222 20 16C20 13.7778 18.2222 12 16 12Z" fill="var(--fill-0, #F8F8F8)"/>
<path id="Vector_2" d="M25.3338 8.88886C25.156 8.35552 24.8894 7.91108 24.4449 7.46663C24.0005 7.02219 23.6449 6.75552 23.0227 6.57775C22.5783 6.39997 21.956 6.22219 20.8005 6.1333C19.556 6.1333 19.1116 6.1333 15.9116 6.1333C12.7116 6.1333 12.356 6.1333 11.0227 6.1333C9.86714 6.1333 9.24492 6.39997 8.80048 6.57775C8.26714 6.75552 7.8227 7.02219 7.37826 7.46663C6.93381 7.91108 6.66714 8.26663 6.48937 8.88886C6.31159 9.3333 6.13381 9.95552 6.04492 11.1111C6.04492 12.3555 6.04492 12.8 6.04492 16C6.04492 19.2 6.04492 19.5555 6.04492 20.8889C6.04492 22.0444 6.31159 22.6666 6.48937 23.1111C6.66714 23.6444 6.93381 24.0889 7.37826 24.5333C7.8227 24.9777 8.17825 25.2444 8.80048 25.4222C9.24492 25.6 9.86714 25.7777 11.0227 25.8666C12.2671 25.8666 12.6227 25.8666 15.9116 25.8666C19.2005 25.8666 19.4671 25.8666 20.8005 25.8666C21.956 25.8666 22.5783 25.6 23.0227 25.4222C23.556 25.2444 24.0005 24.9777 24.4449 24.5333C24.8894 24.0889 25.156 23.7333 25.3338 23.1111C25.5116 22.6666 25.6894 22.0444 25.7783 20.8889C25.7783 19.6444 25.7783 19.2 25.7783 16C25.7783 12.8 25.7783 12.4444 25.7783 11.1111C25.7783 9.95552 25.5116 9.3333 25.3338 8.88886ZM16.0005 22.1333C12.6227 22.1333 9.86714 19.3777 9.86714 16C9.86714 12.6222 12.6227 9.86663 16.0005 9.86663C19.3783 9.86663 22.1338 12.6222 22.1338 16C22.1338 19.3777 19.3783 22.1333 16.0005 22.1333ZM22.4005 11.0222C21.6005 11.0222 20.9783 10.4 20.9783 9.59997C20.9783 8.79997 21.6005 8.17774 22.4005 8.17774C23.2005 8.17774 23.8227 8.79997 23.8227 9.59997C23.8227 10.4 23.2005 11.0222 22.4005 11.0222Z" fill="var(--fill-0, #F8F8F8)"/>
<path id="Vector_3" d="M24 0H8C3.55556 0 0 3.55556 0 8V24C0 28.4444 3.55556 32 8 32H24C28.4444 32 32 28.4444 32 24V8C32 3.55556 28.4444 0 24 0ZM27.9111 20.9778C27.9111 22.2222 27.6444 23.1111 27.3778 23.9111C27.1111 24.7111 26.6667 25.3333 25.9556 26.0444C25.2444 26.7556 24.6222 27.1111 23.8222 27.4667C23.0222 27.7333 22.2222 28 20.8889 28C19.6444 28 19.2 28 15.9111 28C12.6222 28 12.2667 28 10.9333 28C9.68889 28 8.8 27.7333 8 27.4667C7.2 27.2 6.57778 26.7556 5.86667 26.0444C5.15556 25.4222 4.8 24.7111 4.44444 23.9111C4.17778 23.1111 3.91111 22.3111 3.91111 20.9778C3.91111 19.7333 3.91111 19.2889 3.91111 16C3.91111 12.7111 3.91111 12.3556 3.91111 11.0222C3.91111 9.77778 4.17778 8.88889 4.44444 8.08889C4.71111 7.28889 5.15556 6.66667 5.86667 5.95556C6.57778 5.24444 7.2 4.88889 8 4.53333C8.8 4.26667 9.6 4 10.9333 4C12.1778 4 12.6222 4 15.9111 4C19.2 4 19.5556 4 20.8889 4C22.1333 4 23.0222 4.26667 23.8222 4.53333C24.6222 4.8 25.2444 5.24444 25.9556 5.95556C26.6667 6.66667 27.0222 7.28889 27.3778 8.08889C27.6444 8.88889 27.9111 9.68889 27.9111 11.0222C27.9111 12.2667 27.9111 12.7111 27.9111 16C27.9111 19.2889 27.9111 19.6444 27.9111 20.9778Z" fill="var(--fill-0, #F8F8F8)"/>
</g>
<path id="Vector_4" d="M73 0H57C52.5556 0 49 3.54571 49 7.97784V23.9335C49 28.3657 52.5556 31.9114 57 31.9114H73C77.4444 31.9114 81 28.3657 81 23.9335V7.97784C81 3.54571 77.4444 0 73 0ZM73.8 9.13019H71.3111C69.5333 9.13019 69 9.83934 69 11.5235V14.2715H73.8L73.3556 18.7036H69.0889V32H63.4V18.7036H59.5778V14.2715H63.4V11.6122C63.4 7.18006 65.2667 4.87535 70.6 4.87535C75.9333 4.87535 73.0889 4.87535 73.8889 5.05263V9.21884L73.8 9.13019Z" fill="var(--fill-0, #F8F8F8)"/>
<g id="youtube" clip-path="url(#clip1_0_9)">
<path id="Vector_5" d="M112.311 13.0665C112.133 12.9776 111.955 13.0665 111.955 13.3332V18.5776C111.955 18.8443 112.133 18.9332 112.311 18.8443L117.022 16.2665C117.2 16.1776 117.288 15.8221 117.022 15.7332L112.311 13.0665Z" fill="var(--fill-0, #F8F8F8)"/>
<path id="Vector_6" d="M122 0H106C101.556 0 98 3.55556 98 8V24C98 28.3556 101.556 32 106 32H122C126.444 32 130 28.4444 130 24V8C130 3.55556 126.444 0 122 0ZM124.4 18.6667C124.4 21.1556 122.356 23.1111 119.867 23.1111H108.133C105.644 23.1111 103.6 21.0667 103.6 18.6667V13.2444C103.6 10.7556 105.644 8.8 108.133 8.8H119.867C122.356 8.8 124.4 10.8444 124.4 13.2444V18.6667Z" fill="var(--fill-0, #F8F8F8)"/>
</g>
<path id="Vector_7" d="M171 0H155C150.556 0 147 3.55556 147 8V24C147 28.3556 150.556 32 155 32H171C175.444 32 179 28.4444 179 24V8C179 3.55556 175.444 0 171 0ZM157.933 25.6H153.667V12.6222H157.933V25.6ZM157.578 10.2222C157.133 10.6667 156.511 10.8444 155.8 10.8444C155.089 10.8444 154.556 10.6667 154.111 10.2222C153.667 9.77778 153.489 9.24444 153.489 8.62222C153.489 8 153.756 7.46667 154.2 7.02222C154.644 6.57778 155.267 6.4 155.978 6.4C156.689 6.4 157.222 6.57778 157.667 7.02222C158.111 7.46667 158.378 8 158.378 8.71111C158.378 9.42222 158.2 9.86667 157.756 10.2222H157.578ZM173.4 25.6H169.133V18.6667C169.133 16.7111 168.422 15.7333 167 15.7333C165.578 15.7333 166.022 15.9111 165.578 16.1778C165.222 16.4444 164.956 16.8889 164.778 17.3333C164.689 17.6 164.6 17.9556 164.6 18.4V25.6H160.333C160.333 21.6889 160.333 18.6667 160.333 16.5333C160.333 14.4 160.333 13.0667 160.333 12.7111H164.6V14.5778C165.489 13.1556 166.822 12.4444 168.511 12.4444C170.2 12.4444 171.178 12.9778 172.067 13.9556C172.956 14.9333 173.4 16.3556 173.4 18.3111V25.7778V25.6Z" fill="var(--fill-0, #F8F8F8)"/>
</g>
<defs>
<clipPath id="clip0_0_9">
<rect width="32" height="32" fill="white"/>
</clipPath>
<clipPath id="clip1_0_9">
<rect width="32" height="32" fill="white" transform="translate(98)"/>
</clipPath>
</defs>
</svg>
