<?xml version="1.0" encoding="UTF-8"?><svg id="Capa_1" xmlns="http://www.w3.org/2000/svg" viewBox="0 0 60 60"><path d="M8.75,30.95c-.27,0-.49.22-.49.49s.22.49.49.49h3.55l-.63,3.95c-.04.27.14.52.41.56.03,0,.05,0,.08,0,.24,0,.45-.17.49-.41l.65-4.1h2.94l-.63,3.95c-.04.27.14.52.41.56.03,0,.05,0,.08,0,.24,0,.45-.17.49-.41l.65-4.1h4.34c.27,0,.49-.22.49-.49s-.22-.49-.49-.49h-4.18l.48-3h3.71c.27,0,.49-.22.49-.49s-.22-.49-.49-.49h-3.55l.63-3.95c.04-.27-.14-.52-.41-.56-.27-.05-.52.14-.56.41l-.65,4.1h-2.94l.63-3.95c.04-.27-.14-.52-.41-.56-.27-.05-.52.14-.56.41l-.65,4.1h-4.34c-.27,0-.49.22-.49.49s.22.49.49.49h4.18l-.48,3h-3.71ZM13.93,27.95h2.94l-.48,3h-2.94l.48-3Z" fill="#fbb900" stroke-width="0"/><path d="M42.24,7.04c-.05.34-.11.69-.18,1.05-.22,1.05-.54,2.08-.97,3.08-.66.73-1.31,1.47-1.97,2.23-.42.48-.82.95-1.22,1.43-.16-.45-.58-.78-1.09-.78h-4.27c-.65,0-1.17.52-1.17,1.17v10.14c0,.65.53,1.17,1.17,1.17h4.27c.55,0,.99-.39,1.12-.9.25.14.51.27.77.39.6.27,1.23.48,1.88.63.03,0,.07.01.11.01h8.85c1.01,0,1.83-.82,1.83-1.83v-8.99c0-1.01-.82-1.83-1.83-1.83h-5.03c.46-1.38.89-3.18.76-4.86-.08-1.02-.33-1.63-.85-2.05-.45-.36-1.04-.53-1.72-.48-.23.02-.42.19-.45.42ZM37,25.36c0,.1-.09.19-.19.19h-4.27c-.1,0-.19-.09-.19-.19v-10.14c0-.1.09-.19.19-.19h4.27c.1,0,.19.09.19.19v10.14ZM43.15,7.61c.22.03.45.1.64.25.2.17.42.46.49,1.36.13,1.78-.44,3.76-.94,5.11-.06.15-.03.32.06.45.09.13.24.21.4.21h5.72c.47,0,.85.38.85.85v8.99c0,.47-.38.85-.85.85h-8.79c-.56-.13-1.11-.31-1.63-.55-.39-.18-.76-.38-1.12-.61v-8.27c.62-.73,1.24-1.46,1.89-2.2.67-.77,1.35-1.53,2.02-2.28.04-.04.06-.09.09-.13.47-1.08.82-2.21,1.06-3.35.05-.23.09-.46.12-.68Z" fill="#fbb900" stroke-width="0"/><path d="M34.03,43.85c-.93-.54-2.21-.39-3.23.34-1.04-.75-2.35-.89-3.29-.34-.7.41-1.29,1.29-1.48,2.26-.37,2.04,1.45,4.47,4.52,6.06.04.02.08.04.13.04.04,0,.07.01.11.01.08,0,.16-.02.23-.05,3.07-1.59,4.89-4.03,4.52-6.06,0,0-.01-.06-.01-.06-.15-.76-.66-1.73-1.47-2.19ZM30.77,51.18c-2.51-1.37-4.06-3.36-3.77-4.94.13-.63.54-1.26,1-1.54.23-.13.5-.2.79-.2.56,0,1.18.24,1.68.69.19.17.47.17.66,0,.74-.66,1.75-.87,2.41-.49.46.27.87.9,1,1.56,0,0,0,.01,0,.02.28,1.54-1.27,3.53-3.78,4.9Z" fill="#fbb900" stroke-width="0"/><path d="M51.73,0h-3.58c-.27,0-.49.22-.49.49s.22.49.49.49h3.58c3.05,0,5.53,2.48,5.53,5.53v20.57c0,3.05-2.48,5.53-5.53,5.53h-3.55c-.11,0-.22.04-.31.11l-5.61,4.55v-4.17c0-.27-.22-.49-.49-.49h-10.79c-.79,0-1.58-.18-2.3-.52v-11.72c0-2.04-1.37-3.74-3.23-4.3V6.52c0-3.05,2.48-5.53,5.53-5.53h12.54c.27,0,.49-.22.49-.49s-.22-.49-.49-.49h-12.54c-3.59,0-6.51,2.92-6.51,6.51v9.38c-.1,0-.19-.03-.3-.03H6.27c-2.48,0-4.51,2.02-4.51,4.51v2.84c0,.27.22.49.49.49s.49-.22.49-.49v-2.84c0-1.94,1.58-3.52,3.52-3.52h17.89c1.94,0,3.52,1.58,3.52,3.52v17.32h-4.2c-1.38,0-2.5,1.12-2.5,2.5v1.6h-.08c-.11,0-.21.04-.3.1l-4.31,3.3v-2.91c0-.27-.22-.49-.49-.49H6.27c-1.94,0-3.52-1.58-3.52-3.52v-10.4c0-.27-.22-.49-.49-.49s-.49.22-.49.49v10.4c0,2.48,2.02,4.5,4.51,4.5h9.05v3.42c0,.19.11.36.27.44.07.03.14.05.22.05.11,0,.21-.03.3-.1l4.88-3.74v12.03c0,1.38,1.12,2.5,2.5,2.5h7.27v2.14c0,.19.11.36.28.44.07.03.14.05.21.05.11,0,.22-.04.31-.11l3.16-2.53h3.45c1.38,0,2.5-1.12,2.5-2.5v-4.12c0-.27-.22-.49-.49-.49s-.49.22-.49.49v4.12c0,.84-.68,1.51-1.51,1.51h-3.62c-.11,0-.22.04-.31.11l-2.49,1.99v-1.61c0-.27-.22-.49-.49-.49h-7.77c-.84,0-1.51-.68-1.51-1.51v-14.68c0-.84.68-1.51,1.51-1.51h14.68c.84,0,1.51.68,1.51,1.51v5.91c0,.27.22.49.49.49s.49-.22.49-.49v-5.91c0-1.38-1.12-2.5-2.5-2.5h-9.5v-4.52c.73.28,1.52.42,2.3.42h10.3v4.71c0,.19.11.36.28.44.07.03.14.05.21.05.11,0,.22-.04.31-.11l6.28-5.09h3.38c3.59,0,6.51-2.92,6.51-6.51V6.52C58.24,2.93,55.32,0,51.73,0Z" fill="#000" stroke-width="0"/><path d="M40.18,47.92c-.27,0-.5.22-.5.5s.22.5.5.5.5-.22.5-.5-.22-.5-.5-.5Z" fill="#000" stroke-width="0"/><path d="M2.25,26.04c.27,0,.5-.22.5-.5s-.22-.5-.5-.5-.5.22-.5.5.22.5.5.5Z" fill="#000" stroke-width="0"/><path d="M45.83.99c.27,0,.5-.22.5-.5s-.22-.5-.5-.5-.5.22-.5.5.22.5.5.5Z" fill="#000" stroke-width="0"/></svg>